<svg xmlns="http://www.w3.org/2000/svg" width="19.300" height="17.800" viewBox="0 0 19.300 17.800" fill="none">
  <path d="M 9.536 1.536 C 9.888 1.185 9.888 0.615 9.536 0.264 C 9.185 -0.088 8.615 -0.088 8.264 0.264 L 0.264 8.264 C -0.088 8.615 -0.088 9.185 0.264 9.536 L 8.264 17.536 C 8.615 17.888 9.185 17.888 9.536 17.536 C 9.888 17.185 9.888 16.615 9.536 16.264 L 2.173 8.9 L 9.536 1.536 Z M 19.036 1.537 C 19.388 1.185 19.388 0.615 19.036 0.264 C 18.685 -0.087 18.115 -0.087 17.764 0.264 L 9.764 8.264 C 9.412 8.615 9.412 9.185 9.764 9.537 L 17.764 17.537 C 18.115 17.888 18.685 17.888 19.036 17.537 C 19.388 17.185 19.388 16.615 19.036 16.264 L 11.673 8.9 L 19.036 1.537 Z" fill="currentColor" fill-rule="evenodd"/>
</svg>
