<svg xmlns="http://www.w3.org/2000/svg" width="19.300" height="17.800" viewBox="0 0 19.300 17.800" fill="none">
  <path d="M 0.264 1.536 C -0.088 1.185 -0.088 0.615 0.264 0.264 C 0.615 -0.088 1.185 -0.088 1.536 0.264 L 9.536 8.264 C 9.888 8.615 9.888 9.185 9.536 9.536 L 1.536 17.536 C 1.185 17.888 0.615 17.888 0.264 17.536 C -0.088 17.185 -0.088 16.615 0.264 16.264 L 7.627 8.9 L 0.264 1.536 Z M 9.764 1.536 C 9.412 1.185 9.412 0.615 9.764 0.264 C 10.115 -0.088 10.685 -0.088 11.036 0.264 L 19.036 8.264 C 19.388 8.615 19.388 9.185 19.036 9.536 L 11.036 17.536 C 10.685 17.888 10.115 17.888 9.764 17.536 C 9.412 17.185 9.412 16.615 9.764 16.264 L 17.127 8.9 L 9.764 1.536 Z" fill="currentColor" fill-rule="evenodd"/>
</svg>
