<svg xmlns="http://www.w3.org/2000/svg" width="16.800" height="14.800" viewBox="0 0 16.800 14.800" fill="none">
  <path d="M 0.9 0 C 0.403 0 0 0.403 0 0.9 C 0 1.397 0.403 1.8 0.9 1.8 L 15.9 1.8 C 16.397 1.8 16.8 1.397 16.8 0.9 C 16.8 0.403 16.397 0 15.9 0 L 0.9 0 Z" fill="currentColor" fill-rule="nonzero"/>
  <path d="M 0.9 4.333 C 0.403 4.333 0 4.736 0 5.233 C 0 5.73 0.403 6.133 0.9 6.133 L 15.9 6.133 C 16.397 6.133 16.8 5.73 16.8 5.233 C 16.8 4.736 16.397 4.333 15.9 4.333 L 0.9 4.333 Z" fill="currentColor" fill-rule="nonzero"/>
  <path d="M 0 9.567 C 0 9.07 0.403 8.667 0.9 8.667 L 15.9 8.667 C 16.397 8.667 16.8 9.07 16.8 9.567 C 16.8 10.064 16.397 10.467 15.9 10.467 L 0.9 10.467 C 0.403 10.467 0 10.064 0 9.567 Z" fill="currentColor" fill-rule="nonzero"/>
  <path d="M 0.9 13 C 0.403 13 0 13.403 0 13.9 C 0 14.397 0.403 14.8 0.9 14.8 L 15.9 14.8 C 16.397 14.8 16.8 14.397 16.8 13.9 C 16.8 13.403 16.397 13 15.9 13 L 0.9 13 Z" fill="currentColor" fill-rule="nonzero"/>
</svg>
