<svg xmlns="http://www.w3.org/2000/svg" width="16.800" height="14.800" viewBox="0 0 16.800 14.800" fill="none">
  <path d="M 0.9 0 C 0.403 0 0 0.403 0 0.9 C 0 1.397 0.403 1.8 0.9 1.8 L 15.9 1.8 C 16.397 1.8 16.8 1.397 16.8 0.9 C 16.8 0.403 16.397 0 15.9 0 L 0.9 0 Z" fill="currentColor" fill-rule="nonzero"/>
  <path d="M 3.4 4.333 C 2.903 4.333 2.5 4.736 2.5 5.233 C 2.5 5.73 2.903 6.133 3.4 6.133 L 13.4 6.133 C 13.897 6.133 14.3 5.73 14.3 5.233 C 14.3 4.736 13.897 4.333 13.4 4.333 L 3.4 4.333 Z" fill="currentColor" fill-rule="nonzero"/>
  <path d="M 0 9.567 C 0 9.07 0.403 8.667 0.9 8.667 L 15.9 8.667 C 16.397 8.667 16.8 9.07 16.8 9.567 C 16.8 10.064 16.397 10.467 15.9 10.467 L 0.9 10.467 C 0.403 10.467 0 10.064 0 9.567 Z" fill="currentColor" fill-rule="nonzero"/>
  <path d="M 3.4 13 C 2.903 13 2.5 13.403 2.5 13.9 C 2.5 14.397 2.903 14.8 3.4 14.8 L 13.4 14.8 C 13.897 14.8 14.3 14.397 14.3 13.9 C 14.3 13.403 13.897 13 13.4 13 L 3.4 13 Z" fill="currentColor" fill-rule="nonzero"/>
</svg>
