<svg xmlns="http://www.w3.org/2000/svg" width="22" height="12.628" viewBox="0 0 22 12.628" fill="none">
  <path d="M 0 12.628 C 0.15 10.845 0.696 9.203 1.637 7.703 C 2.579 6.203 3.833 5.011 5.4 4.128 L 3.55 0.928 C 3.45 0.778 3.425 0.62 3.475 0.453 C 3.525 0.286 3.633 0.161 3.8 0.078 C 3.933 -0.005 4.083 -0.022 4.25 0.028 C 4.417 0.078 4.55 0.178 4.65 0.328 L 6.5 3.528 C 7.933 2.928 9.433 2.628 11 2.628 C 12.567 2.628 14.067 2.928 15.5 3.528 L 17.35 0.328 C 17.45 0.178 17.583 0.078 17.75 0.028 C 17.917 -0.022 18.067 -0.005 18.2 0.078 C 18.367 0.161 18.475 0.286 18.525 0.453 C 18.575 0.62 18.55 0.778 18.45 0.928 L 16.6 4.128 C 18.167 5.011 19.421 6.203 20.362 7.703 C 21.304 9.203 21.85 10.845 22 12.628 L 0 12.628 Z M 6 9.878 C 6.35 9.878 6.646 9.757 6.887 9.516 C 7.129 9.274 7.25 8.978 7.25 8.628 C 7.25 8.278 7.129 7.982 6.887 7.741 C 6.646 7.499 6.35 7.378 6 7.378 C 5.65 7.378 5.354 7.499 5.112 7.741 C 4.871 7.982 4.75 8.278 4.75 8.628 C 4.75 8.978 4.871 9.274 5.112 9.516 C 5.354 9.757 5.65 9.878 6 9.878 Z M 16 9.878 C 16.35 9.878 16.646 9.757 16.887 9.516 C 17.129 9.274 17.25 8.978 17.25 8.628 C 17.25 8.278 17.129 7.982 16.887 7.741 C 16.646 7.499 16.35 7.378 16 7.378 C 15.65 7.378 15.354 7.499 15.112 7.741 C 14.871 7.982 14.75 8.278 14.75 8.628 C 14.75 8.978 14.871 9.274 15.112 9.516 C 15.354 9.757 15.65 9.878 16 9.878 Z" fill="currentColor" fill-rule="nonzero"/>
</svg>
