<svg xmlns="http://www.w3.org/2000/svg" width="16.800" height="16.800" viewBox="0 0 16.800 16.800" fill="none">
  <path d="M 15 0 C 14.006 0 13.2 0.806 13.2 1.8 C 13.2 2.794 14.006 3.6 15 3.6 C 15.994 3.6 16.8 2.794 16.8 1.8 C 16.8 0.806 15.994 0 15 0 Z" fill="currentColor" fill-rule="nonzero"/>
  <path d="M 13.2 8.4 C 13.2 7.406 14.006 6.6 15 6.6 C 15.994 6.6 16.8 7.406 16.8 8.4 C 16.8 9.394 15.994 10.2 15 10.2 C 14.006 10.2 13.2 9.394 13.2 8.4 Z" fill="currentColor" fill-rule="nonzero"/>
  <path d="M 1.8 13.2 C 0.806 13.2 0 14.006 0 15 C 0 15.994 0.806 16.8 1.8 16.8 C 2.794 16.8 3.6 15.994 3.6 15 C 3.6 14.006 2.794 13.2 1.8 13.2 Z" fill="currentColor" fill-rule="nonzero"/>
  <path d="M 6.6 15 C 6.6 14.006 7.406 13.2 8.4 13.2 C 9.394 13.2 10.2 14.006 10.2 15 C 10.2 15.994 9.394 16.8 8.4 16.8 C 7.406 16.8 6.6 15.994 6.6 15 Z" fill="currentColor" fill-rule="nonzero"/>
  <path d="M 13.2 15 C 13.2 14.006 14.006 13.2 15 13.2 C 15.994 13.2 16.8 14.006 16.8 15 C 16.8 15.994 15.994 16.8 15 16.8 C 14.006 16.8 13.2 15.994 13.2 15 Z" fill="currentColor" fill-rule="nonzero"/>
  <path d="M 8.4 6.6 C 7.406 6.6 6.6 7.406 6.6 8.4 C 6.6 9.394 7.406 10.2 8.4 10.2 C 9.394 10.2 10.2 9.394 10.2 8.4 C 10.2 7.406 9.394 6.6 8.4 6.6 Z" fill="currentColor" fill-rule="nonzero"/>
  <path d="M 0 8.4 C 0 7.406 0.806 6.6 1.8 6.6 C 2.794 6.6 3.6 7.406 3.6 8.4 C 3.6 9.394 2.794 10.2 1.8 10.2 C 0.806 10.2 0 9.394 0 8.4 Z" fill="currentColor" fill-rule="nonzero"/>
  <path d="M 6.6 1.8 C 6.6 0.806 7.406 0 8.4 0 C 9.394 0 10.2 0.806 10.2 1.8 C 10.2 2.794 9.394 3.6 8.4 3.6 C 7.406 3.6 6.6 2.794 6.6 1.8 Z" fill="currentColor" fill-rule="nonzero"/>
  <path d="M 1.8 0 C 0.806 0 0 0.806 0 1.8 C 0 2.794 0.806 3.6 1.8 3.6 C 2.794 3.6 3.6 2.794 3.6 1.8 C 3.6 0.806 2.794 0 1.8 0 Z" fill="currentColor" fill-rule="nonzero"/>
</svg>
