<svg xmlns="http://www.w3.org/2000/svg" width="18.813" height="19.800" viewBox="0 0 18.813 19.800" fill="none">
  <path d="M 3.851 2.274 C 5.108 0.788 6.937 0 9.163 0 C 9.447 0 9.725 0.013 9.997 0.038 C 10.492 0.085 10.855 0.524 10.809 1.019 C 10.762 1.514 10.323 1.877 9.828 1.83 C 9.615 1.81 9.393 1.8 9.163 1.8 C 7.388 1.8 6.092 2.411 5.225 3.437 C 4.34 4.483 3.813 6.065 3.813 8.15 L 3.813 8.9 C 3.813 11.063 3.345 12.727 2.494 14 L 15.831 14 C 15.09 12.891 14.638 11.482 14.535 9.702 C 14.507 9.205 14.886 8.78 15.382 8.751 C 15.878 8.723 16.304 9.102 16.332 9.598 C 16.45 11.643 17.088 12.914 17.969 13.768 C 18.351 14.138 18.39 14.65 18.254 15.026 C 18.115 15.409 17.735 15.8 17.163 15.8 L 1.162 15.8 C 0.59 15.8 0.21 15.409 0.072 15.026 C -0.065 14.65 -0.025 14.138 0.356 13.768 C 1.329 12.825 2.013 11.365 2.013 8.9 L 2.013 8.15 C 2.013 5.783 2.61 3.74 3.851 2.274 Z" fill="currentColor" fill-rule="nonzero"/>
  <path d="M 6.263 18.9 C 6.263 18.403 6.666 18 7.163 18 L 11.163 18 C 11.66 18 12.063 18.403 12.063 18.9 C 12.063 19.397 11.66 19.8 11.163 19.8 L 7.163 19.8 C 6.666 19.8 6.263 19.397 6.263 18.9 Z" fill="currentColor" fill-rule="nonzero"/>
  <path d="M 16.313 0.9 C 16.313 0.403 15.91 0 15.413 0 C 14.916 0 14.513 0.403 14.513 0.9 L 14.513 2.5 L 12.913 2.5 C 12.416 2.5 12.013 2.903 12.013 3.4 C 12.013 3.897 12.416 4.3 12.913 4.3 L 14.513 4.3 L 14.513 5.9 C 14.513 6.397 14.916 6.8 15.413 6.8 C 15.91 6.8 16.313 6.397 16.313 5.9 L 16.313 4.3 L 17.913 4.3 C 18.41 4.3 18.813 3.897 18.813 3.4 C 18.813 2.903 18.41 2.5 17.913 2.5 L 16.313 2.5 L 16.313 0.9 Z" fill="currentColor" fill-rule="nonzero"/>
</svg>
