<svg xmlns="http://www.w3.org/2000/svg" width="21.300" height="18.062" viewBox="0 0 21.300 18.062" fill="none">
  <path d="M 9.85 5.662 C 9.85 4.854 9.85 4.193 9.806 3.656 C 9.761 3.1 9.664 2.598 9.425 2.129 C 9.051 1.396 8.454 0.799 7.721 0.425 C 7.251 0.186 6.745 0.089 6.185 0.044 C 5.644 0 4.976 0 4.158 0 L 4.085 0 C 3.548 0 3.092 0 2.719 0.03 C 2.328 0.062 1.946 0.131 1.583 0.316 C 1.038 0.594 0.594 1.038 0.316 1.583 C 0.132 1.945 0.062 2.324 0.03 2.713 C 0 3.084 0 3.535 0 4.064 L 0 11.985 C 0 12.515 0 12.966 0.03 13.337 C 0.062 13.726 0.132 14.105 0.316 14.467 C 0.594 15.012 1.038 15.456 1.583 15.734 C 1.945 15.918 2.324 15.988 2.713 16.02 C 3.084 16.05 3.535 16.05 4.065 16.05 L 5.162 16.05 C 5.938 16.05 6.18 16.056 6.398 16.108 C 6.612 16.159 6.817 16.244 7.005 16.359 C 7.195 16.476 7.37 16.643 7.919 17.192 C 8.462 17.735 8.733 18.006 8.96 18.049 C 9.253 18.104 9.552 17.981 9.72 17.734 C 9.85 17.543 9.85 17.16 9.85 16.393 L 9.85 5.662 Z" fill="currentColor" fill-rule="nonzero"/>
  <path d="M 11.45 16.393 C 11.45 17.16 11.45 17.544 11.58 17.735 C 11.748 17.981 12.046 18.105 12.339 18.049 C 12.567 18.006 12.838 17.735 13.38 17.192 C 13.93 16.643 14.105 16.476 14.295 16.359 C 14.483 16.244 14.688 16.159 14.902 16.108 C 15.12 16.056 15.362 16.05 16.138 16.05 L 17.235 16.05 C 17.765 16.05 18.216 16.05 18.587 16.02 C 18.976 15.988 19.355 15.918 19.717 15.734 C 20.262 15.456 20.706 15.012 20.984 14.467 C 21.168 14.105 21.238 13.726 21.27 13.337 C 21.3 12.966 21.3 12.515 21.3 11.985 L 21.3 4.065 C 21.3 3.535 21.3 3.084 21.27 2.713 C 21.238 2.324 21.168 1.945 20.984 1.583 C 20.706 1.038 20.262 0.594 19.716 0.316 C 19.353 0.131 18.972 0.062 18.581 0.03 C 18.208 0 17.752 0 17.215 0 L 17.142 0 C 16.324 0 15.656 0 15.114 0.044 C 14.555 0.089 14.049 0.186 13.579 0.425 C 12.845 0.799 12.249 1.396 11.875 2.129 C 11.636 2.598 11.539 3.1 11.494 3.656 C 11.45 4.193 11.45 4.854 11.45 5.662 L 11.45 16.393 Z" fill="currentColor" fill-rule="nonzero"/>
</svg>
