<svg xmlns="http://www.w3.org/2000/svg" width="21.300" height="18.550" viewBox="0 0 21.300 18.550" fill="none">
  <path d="M 4.065 0 C 3.535 0 3.084 0 2.713 0.03 C 2.324 0.062 1.945 0.132 1.583 0.316 C 1.038 0.594 0.594 1.038 0.316 1.583 C 0.132 1.945 0.062 2.324 0.03 2.713 C 0 3.084 0 3.535 0 4.065 L 0 11.985 C 0 12.515 0 12.966 0.03 13.337 C 0.062 13.726 0.132 14.105 0.316 14.467 C 0.594 15.012 1.038 15.456 1.583 15.734 C 1.945 15.918 2.324 15.988 2.713 16.02 C 3.084 16.05 3.535 16.05 4.065 16.05 L 6.162 16.05 C 6.938 16.05 7.18 16.056 7.398 16.108 C 7.612 16.159 7.817 16.244 8.005 16.359 C 8.195 16.476 8.37 16.643 8.919 17.192 L 10.014 18.286 C 10.186 18.459 10.416 18.55 10.65 18.55 C 10.881 18.55 11.12 18.453 11.286 18.286 L 12.381 17.192 C 12.93 16.643 13.105 16.476 13.295 16.359 C 13.483 16.244 13.688 16.159 13.902 16.108 C 14.12 16.056 14.362 16.05 15.138 16.05 L 17.235 16.05 C 17.765 16.05 18.216 16.05 18.587 16.02 C 18.976 15.988 19.355 15.918 19.717 15.734 C 20.262 15.456 20.706 15.012 20.984 14.467 C 21.168 14.105 21.238 13.726 21.27 13.337 C 21.3 12.966 21.3 12.515 21.3 11.985 L 21.3 4.065 C 21.3 3.535 21.3 3.084 21.27 2.713 C 21.238 2.324 21.168 1.945 20.984 1.583 C 20.706 1.038 20.262 0.594 19.717 0.316 C 19.355 0.132 18.976 0.062 18.587 0.03 C 18.216 0 17.765 0 17.235 0 L 15.412 0 C 14.604 0 13.943 0 13.406 0.044 C 12.85 0.089 12.348 0.186 11.879 0.425 C 11.404 0.667 10.987 1.003 10.65 1.408 C 10.313 1.003 9.896 0.667 9.421 0.425 C 8.952 0.186 8.45 0.089 7.894 0.044 C 7.357 0 6.696 0 5.888 0 L 4.065 0 Z M 2.56 1.854 C 2.692 1.811 2.885 1.8 3.7 1.8 L 6.45 1.8 C 7.637 1.8 8.017 1.811 8.299 1.903 C 8.938 2.11 9.439 2.612 9.647 3.251 C 9.739 3.533 9.75 3.913 9.75 5.1 L 9.75 15.478 C 9.553 15.284 9.384 15.129 9.2 14.995 C 8.702 14.633 8.125 14.394 7.517 14.298 C 7.213 14.25 6.901 14.25 6.474 14.25 L 3.7 14.25 C 2.885 14.25 2.692 14.239 2.56 14.196 C 2.225 14.087 1.963 13.825 1.854 13.49 C 1.811 13.358 1.8 13.165 1.8 12.35 L 1.8 3.7 C 1.8 2.885 1.811 2.692 1.854 2.56 C 1.963 2.225 2.225 1.963 2.56 1.854 Z M 18.74 1.854 C 18.608 1.811 18.415 1.8 17.6 1.8 L 14.85 1.8 C 13.663 1.8 13.283 1.811 13.001 1.903 C 12.362 2.11 11.861 2.612 11.653 3.251 C 11.561 3.533 11.55 3.913 11.55 5.1 L 11.55 15.478 C 11.747 15.284 11.916 15.129 12.1 14.995 C 12.598 14.633 13.175 14.394 13.783 14.298 C 14.087 14.25 14.399 14.25 14.826 14.25 L 17.6 14.25 C 18.415 14.25 18.608 14.239 18.74 14.196 C 19.075 14.087 19.337 13.825 19.446 13.49 C 19.489 13.358 19.5 13.165 19.5 12.35 L 19.5 3.7 C 19.5 2.885 19.489 2.692 19.446 2.56 C 19.337 2.225 19.075 1.963 18.74 1.854 Z" fill="currentColor" fill-rule="evenodd"/>
</svg>
