<svg xmlns="http://www.w3.org/2000/svg" width="19.300" height="19.300" viewBox="0 0 19.300 19.300" fill="none">
  <path d="M 10.55 5.65 C 10.55 5.153 10.147 4.75 9.65 4.75 C 9.153 4.75 8.75 5.153 8.75 5.65 L 8.75 8.75 L 5.65 8.75 C 5.153 8.75 4.75 9.153 4.75 9.65 C 4.75 10.147 5.153 10.55 5.65 10.55 L 8.75 10.55 L 8.75 13.65 C 8.75 14.147 9.153 14.55 9.65 14.55 C 10.147 14.55 10.55 14.147 10.55 13.65 L 10.55 10.55 L 13.65 10.55 C 14.147 10.55 14.55 10.147 14.55 9.65 C 14.55 9.153 14.147 8.75 13.65 8.75 L 10.55 8.75 L 10.55 5.65 Z" fill="currentColor" fill-rule="nonzero"/>
  <path d="M 9.65 0 C 4.32 0 0 4.32 0 9.65 C 0 14.979 4.32 19.3 9.65 19.3 C 11.188 19.3 12.645 18.939 13.937 18.297 L 15.75 18.792 C 16.16 18.904 16.526 19.003 16.826 19.057 C 17.131 19.11 17.517 19.147 17.902 19 C 18.408 18.807 18.807 18.408 19 17.902 C 19.147 17.517 19.11 17.131 19.057 16.826 C 19.003 16.526 18.904 16.16 18.792 15.75 L 18.297 13.937 C 18.939 12.645 19.3 11.188 19.3 9.65 C 19.3 4.32 14.979 0 9.65 0 Z M 1.8 9.65 C 1.8 5.315 5.315 1.8 9.65 1.8 C 13.985 1.8 17.5 5.315 17.5 9.65 C 17.5 11.011 17.154 12.289 16.547 13.403 C 16.435 13.607 16.407 13.847 16.468 14.071 L 17.321 17.198 C 17.328 17.224 17.326 17.24 17.323 17.251 C 17.319 17.264 17.31 17.281 17.295 17.295 C 17.281 17.31 17.264 17.319 17.251 17.323 C 17.24 17.326 17.224 17.328 17.198 17.321 L 14.071 16.468 C 13.847 16.407 13.607 16.435 13.403 16.546 C 12.289 17.154 11.011 17.5 9.65 17.5 C 5.315 17.5 1.8 13.985 1.8 9.65 Z" fill="currentColor" fill-rule="evenodd"/>
</svg>
