<svg xmlns="http://www.w3.org/2000/svg" width="19.300" height="19.300" viewBox="0 0 19.300 19.300" fill="none">
  <path d="M 0 9.65 C 0 4.32 4.32 0 9.65 0 C 14.979 0 19.3 4.32 19.3 9.65 C 19.3 11.188 18.939 12.645 18.297 13.937 L 18.792 15.75 C 18.904 16.16 19.003 16.526 19.057 16.826 C 19.11 17.131 19.147 17.517 19 17.903 C 18.807 18.408 18.408 18.807 17.902 19 C 17.517 19.147 17.131 19.11 16.826 19.057 C 16.526 19.004 16.16 18.904 15.75 18.792 L 13.937 18.298 C 12.645 18.939 11.188 19.3 9.65 19.3 C 4.32 19.3 0 14.98 0 9.65 Z M 10.55 5.65 C 10.55 5.153 10.147 4.75 9.65 4.75 C 9.153 4.75 8.75 5.153 8.75 5.65 L 8.75 8.75 L 5.65 8.75 C 5.153 8.75 4.75 9.153 4.75 9.65 C 4.75 10.147 5.153 10.55 5.65 10.55 L 8.75 10.55 L 8.75 13.65 C 8.75 14.147 9.153 14.55 9.65 14.55 C 10.147 14.55 10.55 14.147 10.55 13.65 L 10.55 10.55 L 13.65 10.55 C 14.147 10.55 14.55 10.147 14.55 9.65 C 14.55 9.153 14.147 8.75 13.65 8.75 L 10.55 8.75 L 10.55 5.65 Z" fill="currentColor" fill-rule="evenodd"/>
</svg>
