<svg xmlns="http://www.w3.org/2000/svg" width="14.800" height="20.800" viewBox="0 0 14.800 20.800" fill="none">
  <path d="M 7.4 0 C 3.313 0 0 3.313 0 7.4 C 0 10.161 1.512 12.567 3.75 13.838 L 3.75 14.033 C 3.75 14.425 3.75 14.771 3.773 15.058 C 3.798 15.364 3.854 15.681 4.012 15.99 C 4.242 16.441 4.609 16.808 5.06 17.038 C 5.369 17.196 5.686 17.252 5.992 17.277 C 6.279 17.3 6.625 17.3 7.017 17.3 L 7.783 17.3 C 8.175 17.3 8.521 17.3 8.808 17.277 C 9.114 17.252 9.431 17.196 9.74 17.038 C 10.191 16.808 10.558 16.441 10.788 15.99 C 10.946 15.681 11.002 15.364 11.027 15.058 C 11.05 14.771 11.05 14.425 11.05 14.033 L 11.05 13.838 C 13.288 12.567 14.8 10.161 14.8 7.4 C 14.8 3.313 11.487 0 7.4 0 Z M 1.8 7.4 C 1.8 4.307 4.307 1.8 7.4 1.8 C 10.493 1.8 13 4.307 13 7.4 C 13 9.644 11.679 11.582 9.769 12.476 C 9.452 12.624 9.25 12.942 9.25 13.291 L 9.25 14.3 C 9.25 14.928 9.239 15.029 9.221 15.085 C 9.161 15.268 9.018 15.411 8.835 15.47 C 8.779 15.489 8.678 15.5 8.05 15.5 L 6.75 15.5 C 6.122 15.5 6.021 15.489 5.965 15.47 C 5.782 15.411 5.639 15.268 5.579 15.085 C 5.561 15.029 5.55 14.928 5.55 14.3 L 5.55 13.291 C 5.55 12.942 5.348 12.624 5.031 12.476 C 3.121 11.582 1.8 9.644 1.8 7.4 Z" fill="currentColor" fill-rule="evenodd"/>
  <path d="M 5.15 19 C 4.653 19 4.25 19.403 4.25 19.9 C 4.25 20.397 4.653 20.8 5.15 20.8 L 9.65 20.8 C 10.147 20.8 10.55 20.397 10.55 19.9 C 10.55 19.403 10.147 19 9.65 19 L 5.15 19 Z" fill="currentColor" fill-rule="nonzero"/>
</svg>
