<svg xmlns="http://www.w3.org/2000/svg" width="18.300" height="20.301" viewBox="0 0 18.300 20.301" fill="none">
  <path d="M 13.55 0.9 C 13.55 0.403 13.147 0 12.65 0 C 12.153 0 11.75 0.403 11.75 0.9 L 11.75 2 L 6.55 2 L 6.55 0.9 C 6.55 0.403 6.147 0 5.65 0 C 5.153 0 4.75 0.403 4.75 0.9 L 4.75 2 L 4.065 2 C 3.535 2 3.084 2 2.713 2.03 C 2.324 2.062 1.945 2.131 1.583 2.316 C 1.038 2.594 0.594 3.037 0.316 3.583 C 0.132 3.945 0.062 4.324 0.03 4.713 C 0 5.083 0 5.534 0 6.064 L 0 16.235 C 0 16.765 0 17.216 0.03 17.586 C 0.062 17.976 0.132 18.354 0.316 18.716 C 0.594 19.262 1.038 19.705 1.583 19.984 C 1.945 20.168 2.324 20.238 2.713 20.269 C 3.084 20.3 3.535 20.3 4.064 20.3 L 8.65 20.3 C 9.147 20.3 9.55 19.897 9.55 19.4 C 9.55 18.903 9.147 18.5 8.65 18.5 L 3.7 18.5 C 2.885 18.5 2.692 18.489 2.56 18.446 C 2.225 18.337 1.963 18.074 1.854 17.74 C 1.811 17.608 1.8 17.414 1.8 16.6 L 1.8 9.549 L 16.5 9.549 L 16.5 10.65 C 16.5 11.147 16.903 11.55 17.4 11.55 C 17.897 11.55 18.3 11.147 18.3 10.65 L 18.3 6.064 C 18.3 5.534 18.3 5.083 18.27 4.713 C 18.238 4.324 18.168 3.945 17.984 3.583 C 17.706 3.037 17.262 2.594 16.717 2.316 C 16.355 2.131 15.976 2.062 15.587 2.03 C 15.216 2 14.765 2 14.235 2 L 13.55 2 L 13.55 0.9 Z M 16.5 7.749 L 1.8 7.749 L 1.8 5.7 C 1.8 4.885 1.811 4.691 1.854 4.56 C 1.963 4.225 2.225 3.962 2.56 3.853 C 2.692 3.811 2.885 3.8 3.7 3.8 L 4.75 3.8 L 4.75 4.9 C 4.75 5.397 5.153 5.8 5.65 5.8 C 6.147 5.8 6.55 5.397 6.55 4.9 L 6.55 3.8 L 11.75 3.8 L 11.75 4.9 C 11.75 5.397 12.153 5.8 12.65 5.8 C 13.147 5.8 13.55 5.397 13.55 4.9 L 13.55 3.8 L 14.6 3.8 C 15.415 3.8 15.608 3.811 15.74 3.853 C 16.075 3.962 16.337 4.225 16.446 4.56 C 16.489 4.691 16.5 4.885 16.5 5.7 L 16.5 7.749 Z" fill="currentColor" fill-rule="evenodd"/>
  <path d="M 15.1 13.649 C 14.299 13.649 13.65 14.299 13.65 15.099 C 13.65 15.9 14.299 16.549 15.1 16.549 C 15.901 16.549 16.55 15.9 16.55 15.099 C 16.55 14.299 15.901 13.649 15.1 13.649 Z" fill="currentColor" fill-rule="nonzero"/>
  <path d="M 15.1 17.401 C 14.275 17.401 13.497 17.597 12.909 17.981 C 12.313 18.371 11.9 18.969 11.9 19.728 C 11.9 20.045 12.156 20.301 12.473 20.301 L 17.727 20.301 C 18.043 20.301 18.3 20.045 18.3 19.728 C 18.3 18.969 17.887 18.371 17.29 17.981 C 16.703 17.597 15.924 17.401 15.1 17.401 Z" fill="currentColor" fill-rule="nonzero"/>
</svg>
