<svg xmlns="http://www.w3.org/2000/svg" width="20.800" height="18.800" viewBox="0 0 20.800 18.800" fill="none">
  <path d="M 10.4 5.25 C 7.693 5.25 5.5 7.444 5.5 10.15 C 5.5 12.856 7.693 15.05 10.4 15.05 C 13.106 15.05 15.3 12.856 15.3 10.15 C 15.3 7.444 13.106 5.25 10.4 5.25 Z M 7.3 10.15 C 7.3 8.438 8.687 7.05 10.4 7.05 C 12.112 7.05 13.5 8.438 13.5 10.15 C 13.5 11.862 12.112 13.25 10.4 13.25 C 8.687 13.25 7.3 11.862 7.3 10.15 Z" fill="currentColor" fill-rule="evenodd"/>
  <path d="M 9.059 0 C 8.597 0 8.206 -0.001 7.833 0.1 C 7.505 0.188 7.195 0.333 6.918 0.529 C 6.602 0.751 6.352 1.051 6.056 1.407 L 4.729 3 L 4.065 3 C 3.535 3 3.084 3 2.713 3.03 C 2.324 3.062 1.945 3.132 1.583 3.316 C 1.038 3.594 0.594 4.038 0.316 4.584 C 0.132 4.945 0.062 5.324 0.03 5.713 C 0 6.084 0 6.535 0 7.065 L 0 14.736 C 0 15.265 0 15.717 0.03 16.087 C 0.062 16.476 0.132 16.855 0.316 17.217 C 0.594 17.762 1.038 18.206 1.583 18.484 C 1.945 18.668 2.324 18.738 2.713 18.77 C 3.084 18.8 3.535 18.8 4.065 18.8 L 16.735 18.8 C 17.265 18.8 17.716 18.8 18.087 18.77 C 18.476 18.738 18.855 18.668 19.217 18.484 C 19.762 18.206 20.206 17.762 20.484 17.217 C 20.668 16.855 20.738 16.476 20.77 16.087 C 20.8 15.717 20.8 15.265 20.8 14.736 L 20.8 7.065 C 20.8 6.535 20.8 6.084 20.77 5.713 C 20.738 5.324 20.668 4.945 20.484 4.584 C 20.206 4.038 19.762 3.594 19.217 3.316 C 18.855 3.132 18.476 3.062 18.087 3.03 C 17.716 3 17.265 3 16.735 3 L 16.072 3 L 14.743 1.406 C 14.448 1.051 14.198 0.751 13.882 0.528 C 13.604 0.333 13.295 0.188 12.967 0.1 C 12.594 -0.001 12.204 0 11.741 0 L 9.059 0 Z M 8.395 1.817 C 8.472 1.803 8.563 1.8 8.962 1.8 L 11.839 1.8 C 12.238 1.8 12.328 1.803 12.405 1.817 C 12.596 1.851 12.774 1.934 12.923 2.059 C 12.982 2.11 13.043 2.177 13.298 2.484 L 14.749 4.225 L 14.761 4.239 C 14.804 4.291 14.884 4.388 14.982 4.47 C 15.17 4.629 15.398 4.736 15.641 4.779 C 15.767 4.801 15.893 4.801 15.96 4.8 L 15.978 4.8 L 17.1 4.8 C 17.915 4.8 18.108 4.811 18.24 4.854 C 18.575 4.963 18.837 5.225 18.946 5.56 C 18.989 5.692 19 5.886 19 6.7 L 19 15.1 C 19 15.915 18.989 16.109 18.946 16.24 C 18.837 16.575 18.575 16.838 18.24 16.946 C 18.108 16.989 17.915 17 17.1 17 L 3.7 17 C 2.885 17 2.692 16.989 2.56 16.946 C 2.225 16.838 1.963 16.575 1.854 16.24 C 1.811 16.109 1.8 15.915 1.8 15.1 L 1.8 6.7 C 1.8 5.886 1.811 5.692 1.854 5.56 C 1.963 5.225 2.225 4.963 2.56 4.854 C 2.692 4.811 2.885 4.8 3.7 4.8 L 4.823 4.8 L 4.841 4.8 C 4.908 4.801 5.034 4.801 5.16 4.779 C 5.403 4.736 5.631 4.629 5.819 4.47 C 5.917 4.387 5.997 4.29 6.04 4.239 L 6.052 4.224 L 7.502 2.484 C 7.757 2.177 7.818 2.11 7.877 2.059 C 8.026 1.934 8.204 1.851 8.395 1.817 Z" fill="currentColor" fill-rule="evenodd"/>
</svg>
