<svg xmlns="http://www.w3.org/2000/svg" width="20.800" height="18.800" viewBox="0 0 20.800 18.800" fill="none">
  <path d="M 7.05 10.15 C 7.05 8.3 8.549 6.8 10.4 6.8 C 12.25 6.8 13.75 8.3 13.75 10.15 C 13.75 12 12.25 13.5 10.4 13.5 C 8.549 13.5 7.05 12 7.05 10.15 Z" fill="currentColor" fill-rule="nonzero"/>
  <path d="M 9.059 0 L 11.741 0 C 12.204 0 12.594 -0.001 12.967 0.1 C 13.295 0.188 13.604 0.333 13.882 0.528 C 14.198 0.751 14.448 1.051 14.743 1.406 L 16.072 3 L 16.735 3 C 17.265 3 17.716 3 18.087 3.03 C 18.476 3.062 18.855 3.132 19.217 3.316 C 19.762 3.594 20.206 4.038 20.484 4.584 C 20.668 4.945 20.738 5.324 20.77 5.713 C 20.8 6.084 20.8 6.535 20.8 7.065 L 20.8 14.736 C 20.8 15.265 20.8 15.717 20.77 16.087 C 20.738 16.476 20.668 16.855 20.484 17.217 C 20.206 17.762 19.762 18.206 19.217 18.484 C 18.855 18.668 18.476 18.738 18.087 18.77 C 17.716 18.8 17.265 18.8 16.735 18.8 L 4.065 18.8 C 3.535 18.8 3.084 18.8 2.713 18.77 C 2.324 18.738 1.945 18.668 1.583 18.484 C 1.038 18.206 0.594 17.762 0.316 17.217 C 0.132 16.855 0.062 16.476 0.03 16.087 C 0 15.717 0 15.265 0 14.736 L 0 7.065 C 0 6.535 0 6.084 0.03 5.713 C 0.062 5.324 0.132 4.945 0.316 4.584 C 0.594 4.038 1.038 3.594 1.583 3.316 C 1.945 3.132 2.324 3.062 2.713 3.03 C 3.084 3 3.535 3 4.065 3 L 4.729 3 L 6.056 1.407 C 6.352 1.051 6.602 0.751 6.918 0.529 C 7.195 0.333 7.505 0.188 7.833 0.1 C 8.206 -0.001 8.597 0 9.059 0 Z M 10.4 5 C 7.555 5 5.25 7.306 5.25 10.15 C 5.25 12.994 7.555 15.3 10.4 15.3 C 13.244 15.3 15.55 12.994 15.55 10.15 C 15.55 7.306 13.244 5 10.4 5 Z" fill="currentColor" fill-rule="evenodd"/>
</svg>
