<svg xmlns="http://www.w3.org/2000/svg" width="16.300" height="19.800" viewBox="0 0 16.300 19.800" fill="none">
  <path d="M 8.541 4.566 C 8.296 4.434 8.002 4.434 7.758 4.566 C 7.546 4.68 7.442 4.894 7.383 5.027 C 7.315 5.178 7.245 5.38 7.164 5.613 C 7.091 5.823 7.021 6.034 6.945 6.242 C 6.723 6.25 6.501 6.252 6.279 6.256 C 6.032 6.261 5.818 6.266 5.654 6.283 C 5.509 6.298 5.273 6.331 5.099 6.497 C 4.899 6.689 4.808 6.969 4.857 7.242 C 4.9 7.478 5.072 7.644 5.18 7.741 C 5.303 7.851 5.473 7.981 5.67 8.13 C 5.847 8.264 6.026 8.396 6.201 8.533 C 6.14 8.746 6.073 8.958 6.008 9.17 C 5.937 9.407 5.875 9.612 5.84 9.774 C 5.81 9.916 5.769 10.15 5.873 10.367 C 5.993 10.617 6.231 10.79 6.506 10.827 C 6.744 10.859 6.955 10.747 7.081 10.675 C 7.224 10.592 7.4 10.47 7.603 10.328 C 7.785 10.202 7.965 10.072 8.149 9.948 C 8.333 10.072 8.514 10.202 8.696 10.328 C 8.899 10.47 9.075 10.592 9.218 10.675 C 9.344 10.747 9.554 10.859 9.792 10.827 C 10.067 10.79 10.305 10.617 10.426 10.367 C 10.53 10.15 10.488 9.916 10.458 9.774 C 10.424 9.612 10.362 9.407 10.29 9.17 C 10.226 8.958 10.159 8.746 10.098 8.533 C 10.272 8.396 10.451 8.264 10.628 8.13 C 10.825 7.981 10.996 7.851 11.119 7.741 C 11.226 7.644 11.398 7.478 11.441 7.242 C 11.491 6.969 11.4 6.689 11.199 6.497 C 11.025 6.331 10.789 6.298 10.645 6.283 C 10.48 6.266 10.266 6.261 10.019 6.256 C 9.797 6.252 9.575 6.25 9.354 6.242 C 9.277 6.034 9.207 5.823 9.134 5.613 C 9.053 5.38 8.983 5.178 8.916 5.027 C 8.857 4.894 8.752 4.68 8.541 4.566 Z" fill="currentColor" fill-rule="nonzero"/>
  <path d="M 5.65 13.251 C 5.153 13.251 4.75 13.654 4.75 14.151 C 4.75 14.648 5.153 15.051 5.65 15.051 L 10.65 15.051 C 11.147 15.051 11.55 14.648 11.55 14.151 C 11.55 13.654 11.147 13.251 10.65 13.251 L 5.65 13.251 Z" fill="currentColor" fill-rule="nonzero"/>
  <path d="M 4.863 0 L 11.437 0 C 12.105 0 12.662 0 13.115 0.037 C 13.588 0.076 14.028 0.159 14.444 0.371 C 15.083 0.697 15.603 1.217 15.929 1.856 C 16.141 2.272 16.224 2.712 16.263 3.185 C 16.3 3.638 16.3 4.194 16.3 4.863 L 16.3 14.937 C 16.3 15.606 16.3 16.162 16.263 16.615 C 16.224 17.088 16.141 17.528 15.929 17.944 C 15.603 18.583 15.083 19.103 14.444 19.429 C 14.028 19.641 13.588 19.724 13.115 19.763 C 12.661 19.8 12.106 19.8 11.437 19.8 L 4.863 19.8 C 4.194 19.8 3.638 19.8 3.185 19.763 C 2.712 19.724 2.272 19.641 1.856 19.429 C 1.217 19.103 0.697 18.583 0.371 17.944 C 0.159 17.528 0.076 17.088 0.037 16.615 C 0 16.162 0 15.606 0 14.937 L 0 4.863 C 0 4.194 0 3.638 0.037 3.185 C 0.076 2.712 0.159 2.272 0.371 1.856 C 0.697 1.217 1.217 0.697 1.856 0.371 C 2.272 0.159 2.712 0.076 3.185 0.037 C 3.638 0 4.194 0 4.863 0 Z M 4.4 1.798 C 3.399 1.798 3.112 1.809 2.906 1.876 C 2.419 2.035 2.037 2.417 1.878 2.904 C 1.811 3.111 1.8 3.397 1.8 4.398 L 1.8 15.398 C 1.8 16.399 1.811 16.686 1.878 16.893 C 2.037 17.38 2.419 17.762 2.906 17.92 C 3.112 17.987 3.399 17.998 4.4 17.998 L 11.9 17.998 C 12.901 17.998 13.188 17.987 13.394 17.92 C 13.882 17.762 14.263 17.38 14.422 16.893 C 14.489 16.686 14.5 16.399 14.5 15.398 L 14.5 4.398 C 14.5 3.397 14.489 3.111 14.422 2.904 C 14.263 2.417 13.882 2.035 13.394 1.876 C 13.188 1.809 12.901 1.798 11.9 1.798 L 4.4 1.798 Z" fill="currentColor" fill-rule="evenodd"/>
</svg>
