<svg xmlns="http://www.w3.org/2000/svg" width="16.800" height="18.300" viewBox="0 0 16.800 18.300" fill="none">
  <path d="M 12.786 9.036 L 16.536 5.286 C 16.888 4.935 16.888 4.365 16.536 4.014 L 12.786 0.264 C 12.435 -0.088 11.865 -0.088 11.514 0.264 C 11.162 0.615 11.162 1.185 11.514 1.536 L 13.727 3.75 L 0.9 3.75 C 0.403 3.75 0 4.153 0 4.65 C 0 5.147 0.403 5.55 0.9 5.55 L 13.727 5.55 L 11.514 7.764 C 11.162 8.115 11.162 8.685 11.514 9.036 C 11.865 9.388 12.435 9.388 12.786 9.036 Z" fill="currentColor" fill-rule="nonzero"/>
  <path d="M 0.264 14.287 C -0.088 13.935 -0.088 13.366 0.264 13.014 L 4.014 9.264 C 4.365 8.913 4.935 8.913 5.286 9.264 C 5.638 9.616 5.638 10.185 5.286 10.537 L 3.073 12.75 L 15.9 12.75 C 16.397 12.75 16.8 13.153 16.8 13.65 C 16.8 14.148 16.397 14.55 15.9 14.55 L 3.073 14.55 L 5.286 16.764 C 5.638 17.116 5.638 17.685 5.286 18.037 C 4.935 18.388 4.365 18.388 4.014 18.037 L 0.264 14.287 Z" fill="currentColor" fill-rule="nonzero"/>
</svg>
