<svg xmlns="http://www.w3.org/2000/svg" width="22.077" height="21.076" viewBox="0 0 22.077 21.076" fill="none">
  <path d="M 5.356 7.241 C 2.429 8.04 0.277 10.718 0.277 13.899 C 0.277 14.83 0.462 15.721 0.798 16.534 L 0.169 18.841 C 0.116 19.036 0.061 19.237 0.03 19.409 C 0 19.583 -0.037 19.876 0.082 20.185 C 0.224 20.558 0.518 20.852 0.89 20.994 C 1.2 21.112 1.492 21.076 1.667 21.045 C 1.838 21.015 2.039 20.96 2.234 20.907 L 4.542 20.277 C 5.355 20.613 6.245 20.799 7.177 20.799 C 9.953 20.799 12.345 19.16 13.441 16.797 C 13.519 16.799 13.598 16.8 13.677 16.8 C 14.987 16.8 16.229 16.5 17.336 15.963 L 19.065 16.435 C 19.388 16.523 19.688 16.605 19.937 16.649 C 20.189 16.693 20.538 16.73 20.893 16.594 C 21.345 16.421 21.702 16.064 21.875 15.612 C 22.01 15.257 21.974 14.908 21.929 14.656 C 21.885 14.407 21.804 14.107 21.715 13.784 L 21.243 12.052 C 21.777 10.947 22.077 9.707 22.077 8.4 C 22.077 3.761 18.316 0 13.677 0 C 9.431 0 5.92 3.15 5.356 7.241 Z M 7.226 6.999 C 11.014 7.025 14.077 10.104 14.077 13.899 C 14.077 14.271 14.047 14.636 13.991 14.993 C 15.008 14.945 15.964 14.668 16.808 14.211 C 17.012 14.101 17.25 14.074 17.473 14.135 L 19.503 14.688 C 19.79 14.767 19.986 14.82 20.133 14.853 C 20.101 14.706 20.048 14.51 19.969 14.222 L 19.415 12.19 C 19.354 11.967 19.381 11.73 19.491 11.526 C 19.992 10.597 20.277 9.533 20.277 8.4 C 20.277 4.755 17.322 1.8 13.677 1.8 C 10.512 1.8 7.868 4.027 7.226 6.999 Z M 12.277 13.899 C 12.277 11.082 9.994 8.799 7.177 8.799 C 4.36 8.799 2.077 11.082 2.077 13.899 C 2.077 14.68 2.252 15.418 2.564 16.077 C 2.656 16.271 2.675 16.492 2.619 16.699 L 1.96 19.116 L 4.377 18.457 C 4.584 18.4 4.804 18.42 4.998 18.512 C 5.658 18.824 6.396 18.999 7.177 18.999 C 9.994 18.999 12.277 16.715 12.277 13.899 Z" fill="currentColor" fill-rule="evenodd"/>
</svg>
