<svg xmlns="http://www.w3.org/2000/svg" width="19.800" height="19.800" viewBox="0 0 19.800 19.800" fill="none">
  <path d="M 7.219 13.281 C 7.219 13.761 7.609 14.15 8.089 14.15 C 8.569 14.15 8.958 13.761 8.958 13.281 L 8.958 11.272 L 10.132 11.272 C 12.07 11.272 13.398 10.127 13.398 8.453 C 13.398 6.791 12.07 5.646 10.132 5.646 L 8.819 5.646 C 8.259 5.646 7.979 5.646 7.765 5.755 C 7.577 5.851 7.424 6.004 7.328 6.192 C 7.219 6.406 7.219 6.686 7.219 7.246 L 7.219 13.281 Z M 10.156 9.686 L 8.958 9.686 L 8.958 7.232 L 10.156 7.232 C 11.09 7.232 11.648 7.69 11.648 8.453 C 11.648 9.222 11.09 9.686 10.156 9.686 Z" fill="currentColor" fill-rule="evenodd"/>
  <path d="M 9.9 0 C 4.432 0 0 4.432 0 9.9 C 0 15.368 4.432 19.8 9.9 19.8 C 15.368 19.8 19.8 15.368 19.8 9.9 C 19.8 4.432 15.368 0 9.9 0 Z M 1.8 9.9 C 1.8 5.426 5.426 1.8 9.9 1.8 C 14.373 1.8 18 5.426 18 9.9 C 18 14.374 14.373 18 9.9 18 C 5.426 18 1.8 14.374 1.8 9.9 Z" fill="currentColor" fill-rule="evenodd"/>
</svg>
