<svg xmlns="http://www.w3.org/2000/svg" width="19.801" height="19.801" viewBox="0 0 19.801 19.801" fill="none">
  <path d="M 12.601 6.3 C 13.097 6.3 13.5 6.703 13.5 7.2 L 13.5 12.6 C 13.5 13.097 13.097 13.5 12.601 13.5 C 12.104 13.5 11.7 13.097 11.7 12.6 L 11.7 9.373 L 7.837 13.236 C 7.485 13.588 6.915 13.588 6.563 13.236 C 6.212 12.885 6.212 12.315 6.563 11.964 L 10.428 8.1 L 7.2 8.1 C 6.703 8.1 6.3 7.697 6.3 7.2 C 6.3 6.703 6.703 6.3 7.2 6.3 L 12.601 6.3 Z" fill="currentColor" fill-rule="nonzero"/>
  <path d="M 9.9 0 C 15.368 0 19.801 4.433 19.801 9.9 C 19.801 15.368 15.368 19.801 9.9 19.801 C 4.433 19.801 0 15.368 0 9.9 C 0 4.433 4.433 0 9.9 0 Z M 9.9 1.801 C 5.427 1.801 1.801 5.427 1.801 9.9 C 1.801 14.374 5.427 18 9.9 18 C 14.374 18 18 14.374 18 9.9 C 18 5.427 14.374 1.801 9.9 1.801 Z" fill="currentColor" fill-rule="evenodd"/>
</svg>
