<svg xmlns="http://www.w3.org/2000/svg" width="19.800" height="19.800" viewBox="0 0 19.800 19.800" fill="none">
  <path d="M 0 9.9 C 0 4.432 4.432 0 9.9 0 C 15.367 0 19.8 4.432 19.8 9.9 C 19.8 15.368 15.367 19.8 9.9 19.8 C 4.432 19.8 0 15.368 0 9.9 Z M 10.8 5.65 C 10.8 5.153 10.397 4.75 9.9 4.75 C 9.403 4.75 9 5.153 9 5.65 L 9 9 L 5.65 9 C 5.153 9 4.75 9.403 4.75 9.9 C 4.75 10.397 5.153 10.8 5.65 10.8 L 9 10.8 L 9 14.15 C 9 14.647 9.403 15.05 9.9 15.05 C 10.397 15.05 10.8 14.647 10.8 14.15 L 10.8 10.8 L 14.15 10.8 C 14.647 10.8 15.05 10.397 15.05 9.9 C 15.05 9.403 14.647 9 14.15 9 L 10.8 9 L 10.8 5.65 Z" fill="currentColor" fill-rule="evenodd"/>
</svg>
