<svg xmlns="http://www.w3.org/2000/svg" width="15.600" height="15.600" viewBox="0 0 15.600 15.600" fill="none">
  <path d="M 0.381 0.381 C 0.888 -0.127 1.712 -0.127 2.219 0.381 L 7.8 5.962 L 13.381 0.381 C 13.888 -0.127 14.712 -0.127 15.219 0.381 C 15.727 0.888 15.727 1.712 15.219 2.219 L 9.638 7.8 L 15.219 13.381 C 15.727 13.888 15.727 14.712 15.219 15.219 C 14.712 15.727 13.888 15.727 13.381 15.219 L 7.8 9.638 L 2.219 15.219 C 1.712 15.727 0.888 15.727 0.381 15.219 C -0.127 14.712 -0.127 13.888 0.381 13.381 L 5.962 7.8 L 0.381 2.219 C -0.127 1.712 -0.127 0.888 0.381 0.381 Z" fill="currentColor" fill-rule="nonzero"/>
</svg>
