<svg xmlns="http://www.w3.org/2000/svg" width="21.800" height="17.800" viewBox="0 0 21.800 17.800" fill="none">
  <path d="M 13.118 0.027 C 13.6 0.148 13.894 0.636 13.773 1.118 L 9.773 17.118 C 9.652 17.601 9.164 17.894 8.682 17.773 C 8.199 17.653 7.906 17.164 8.027 16.682 L 12.027 0.682 C 12.147 0.2 12.636 -0.093 13.118 0.027 Z" fill="currentColor" fill-rule="nonzero"/>
  <path d="M 15.263 3.264 C 14.912 3.615 14.912 4.185 15.263 4.537 L 19.627 8.9 L 15.263 13.264 C 14.912 13.615 14.912 14.185 15.263 14.537 C 15.615 14.888 16.185 14.888 16.536 14.537 L 21.536 9.537 C 21.888 9.185 21.888 8.615 21.536 8.264 L 16.536 3.264 C 16.185 2.912 15.615 2.912 15.263 3.264 Z" fill="currentColor" fill-rule="nonzero"/>
  <path d="M 6.536 4.537 C 6.888 4.185 6.888 3.615 6.536 3.264 C 6.185 2.912 5.615 2.912 5.264 3.264 L 0.264 8.264 C -0.088 8.615 -0.088 9.185 0.264 9.537 L 5.264 14.537 C 5.615 14.888 6.185 14.888 6.536 14.537 C 6.888 14.185 6.888 13.615 6.536 13.264 L 2.173 8.9 L 6.536 4.537 Z" fill="currentColor" fill-rule="nonzero"/>
</svg>
