<svg xmlns="http://www.w3.org/2000/svg" width="21.299" height="18.804" viewBox="0 0 21.299 18.804" fill="none">
  <path d="M 3.267 0 L 13.533 0 C 13.925 0 14.271 0 14.558 0.023 C 14.864 0.048 15.181 0.104 15.49 0.262 C 15.941 0.492 16.308 0.859 16.538 1.31 C 16.655 1.54 16.716 1.774 16.75 2.005 L 17.149 2.005 C 19.441 2.005 21.299 3.863 21.299 6.155 C 21.299 8.447 19.441 10.305 17.149 10.305 L 15.839 10.305 C 14.433 12.978 11.63 14.801 8.4 14.801 C 3.761 14.801 0 11.039 0 6.4 L 0 3.267 C 0 2.875 0 2.529 0.023 2.242 C 0.048 1.936 0.104 1.619 0.262 1.31 C 0.492 0.859 0.859 0.492 1.31 0.262 C 1.619 0.104 1.936 0.048 2.242 0.023 C 2.529 0 2.875 0 3.267 0 Z M 17.149 3.805 L 16.8 3.805 L 16.8 6.4 C 16.8 7.127 16.708 7.832 16.534 8.505 L 17.149 8.505 C 18.447 8.505 19.499 7.453 19.499 6.155 C 19.499 4.857 18.447 3.805 17.149 3.805 Z" fill="currentColor" fill-rule="evenodd"/>
  <path d="M 2.15 17.004 C 1.653 17.004 1.25 17.407 1.25 17.904 C 1.25 18.401 1.653 18.804 2.15 18.804 L 15.15 18.804 C 15.647 18.804 16.05 18.401 16.05 17.904 C 16.05 17.407 15.647 17.004 15.15 17.004 L 2.15 17.004 Z" fill="currentColor" fill-rule="nonzero"/>
</svg>
