<svg xmlns="http://www.w3.org/2000/svg" width="21.300" height="18.804" viewBox="0 0 21.300 18.804" fill="none">
  <path d="M 4.065 0 C 3.535 0 3.084 0 2.713 0.03 C 2.324 0.062 1.945 0.132 1.583 0.316 C 1.038 0.594 0.594 1.038 0.316 1.583 C 0.132 1.945 0.062 2.324 0.03 2.713 C 0 3.084 0 3.535 0 4.065 L 0 6.4 C 0 11.039 3.761 14.801 8.4 14.801 C 11.83 14.801 14.778 12.746 16.084 9.8 L 17.4 9.8 C 19.554 9.8 21.3 8.054 21.3 5.9 C 21.3 3.746 19.554 2 17.4 2 L 16.648 2.001 C 16.607 1.86 16.554 1.72 16.484 1.583 C 16.206 1.038 15.762 0.594 15.217 0.316 C 14.855 0.132 14.476 0.062 14.087 0.03 C 13.716 0 13.265 0 12.735 0 L 4.065 0 Z M 16.8 3.801 C 16.8 3.887 16.8 3.974 16.8 4.065 L 16.8 6.4 C 16.8 6.947 16.748 7.482 16.648 8 L 17.4 8 C 18.56 8 19.5 7.06 19.5 5.9 C 19.5 4.74 18.56 3.8 17.401 3.8 L 16.8 3.801 Z M 2.56 1.854 C 2.692 1.811 2.885 1.8 3.7 1.8 L 13.1 1.8 C 13.915 1.8 14.108 1.811 14.24 1.854 C 14.575 1.962 14.837 2.225 14.946 2.56 C 14.989 2.691 15 2.885 15 3.7 L 15 6.4 C 15 10.045 12.045 13.001 8.4 13.001 C 4.755 13.001 1.8 10.045 1.8 6.4 L 1.8 3.7 C 1.8 2.885 1.811 2.691 1.854 2.56 C 1.963 2.225 2.225 1.962 2.56 1.854 Z" fill="currentColor" fill-rule="evenodd"/>
  <path d="M 1.25 17.904 C 1.25 17.407 1.653 17.004 2.15 17.004 L 15.15 17.004 C 15.647 17.004 16.05 17.407 16.05 17.904 C 16.05 18.401 15.647 18.804 15.15 18.804 L 2.15 18.804 C 1.653 18.804 1.25 18.401 1.25 17.904 Z" fill="currentColor" fill-rule="nonzero"/>
</svg>
