<svg xmlns="http://www.w3.org/2000/svg" width="19.800" height="19.800" viewBox="0 0 19.800 19.800" fill="none">
  <path d="M 7.822 7.571 C 7.726 7.641 7.641 7.726 7.571 7.822 C 7.484 7.941 7.431 8.073 7.418 8.106 L 7.416 8.112 L 5.549 12.563 C 5.499 12.683 5.44 12.822 5.402 12.942 C 5.37 13.042 5.275 13.34 5.383 13.676 C 5.497 14.027 5.772 14.303 6.124 14.417 C 6.459 14.525 6.758 14.43 6.857 14.398 C 6.978 14.36 7.117 14.301 7.237 14.251 L 11.688 12.384 L 11.694 12.382 C 11.727 12.369 11.859 12.316 11.977 12.229 C 12.074 12.159 12.159 12.074 12.229 11.978 C 12.315 11.859 12.368 11.727 12.382 11.694 L 12.384 11.688 L 14.251 7.237 C 14.301 7.117 14.359 6.978 14.398 6.858 C 14.429 6.758 14.525 6.46 14.416 6.124 C 14.303 5.773 14.027 5.497 13.675 5.383 C 13.34 5.275 13.041 5.37 12.942 5.402 C 12.822 5.44 12.682 5.499 12.563 5.549 L 8.112 7.416 L 8.106 7.418 C 8.073 7.431 7.941 7.484 7.822 7.571 Z M 10.9 9.901 C 10.9 10.453 10.452 10.901 9.9 10.901 C 9.348 10.901 8.9 10.453 8.9 9.901 C 8.9 9.348 9.348 8.901 9.9 8.901 C 10.452 8.901 10.9 9.348 10.9 9.901 Z" fill="currentColor" fill-rule="evenodd"/>
  <path d="M 9.9 0 C 4.432 0 0 4.432 0 9.9 C 0 15.368 4.432 19.8 9.9 19.8 C 15.368 19.8 19.8 15.368 19.8 9.9 C 19.8 4.432 15.368 0 9.9 0 Z M 1.8 9.9 C 1.8 5.426 5.426 1.8 9.9 1.8 C 14.374 1.8 18 5.426 18 9.9 C 18 14.374 14.374 18 9.9 18 C 5.426 18 1.8 14.374 1.8 9.9 Z" fill="currentColor" fill-rule="evenodd"/>
</svg>
