<svg xmlns="http://www.w3.org/2000/svg" width="19.800" height="19.800" viewBox="0 0 19.800 19.800" fill="none">
  <path d="M 11.4 9.901 C 11.4 10.729 10.728 11.401 9.9 11.401 C 9.071 11.401 8.4 10.729 8.4 9.901 C 8.4 9.072 9.071 8.401 9.9 8.401 C 10.728 8.401 11.4 9.072 11.4 9.901 Z" fill="currentColor" fill-rule="nonzero"/>
  <path d="M 0 9.9 C 0 4.432 4.432 0 9.9 0 C 15.368 0 19.8 4.432 19.8 9.9 C 19.8 15.368 15.368 19.8 9.9 19.8 C 4.432 19.8 0 15.368 0 9.9 Z M 7.809 7.577 C 7.721 7.643 7.643 7.721 7.577 7.81 C 7.495 7.918 7.443 8.038 7.43 8.068 L 7.427 8.073 L 5.268 12.824 C 5.21 12.952 5.144 13.097 5.1 13.221 L 5.099 13.224 C 5.064 13.322 4.954 13.632 5.062 13.98 C 5.174 14.342 5.458 14.626 5.82 14.738 C 6.168 14.846 6.478 14.736 6.576 14.701 L 6.579 14.7 C 6.703 14.656 6.848 14.59 6.976 14.532 L 11.727 12.373 L 11.732 12.37 C 11.762 12.357 11.882 12.305 11.991 12.224 C 12.079 12.158 12.157 12.079 12.223 11.991 C 12.304 11.883 12.357 11.763 12.37 11.733 L 12.372 11.727 L 14.531 6.977 C 14.59 6.849 14.656 6.704 14.7 6.58 L 14.701 6.576 C 14.736 6.478 14.845 6.169 14.737 5.821 C 14.625 5.458 14.342 5.175 13.979 5.063 C 13.631 4.955 13.322 5.064 13.224 5.099 L 13.22 5.1 C 13.096 5.144 12.952 5.21 12.823 5.269 L 8.073 7.428 L 8.067 7.43 C 8.037 7.443 7.918 7.496 7.809 7.577 Z" fill="currentColor" fill-rule="evenodd"/>
</svg>
