<svg xmlns="http://www.w3.org/2000/svg" width="18.800" height="18.300" viewBox="0 0 18.800 18.300" fill="none">
  <path d="M 9.4 0 C 9.692 0 9.966 0.142 10.134 0.38 L 12.538 3.773 C 12.87 4.241 13.088 4.548 13.273 4.769 C 13.452 4.983 13.551 5.054 13.616 5.088 C 13.822 5.196 14.056 5.236 14.286 5.203 C 14.359 5.193 14.476 5.158 14.715 5.017 C 14.964 4.87 15.272 4.653 15.741 4.322 L 17.381 3.165 C 17.67 2.961 18.052 2.945 18.356 3.124 C 18.661 3.304 18.833 3.645 18.795 3.997 L 17.795 13.247 C 17.745 13.704 17.36 14.05 16.9 14.05 L 1.9 14.05 C 1.44 14.05 1.055 13.704 1.005 13.247 L 0.005 3.997 C -0.033 3.645 0.139 3.304 0.444 3.124 C 0.748 2.945 1.13 2.961 1.419 3.165 L 3.059 4.322 C 3.528 4.653 3.836 4.87 4.085 5.017 C 4.324 5.158 4.441 5.193 4.514 5.203 C 4.744 5.236 4.978 5.196 5.184 5.088 C 5.249 5.054 5.348 4.983 5.527 4.769 C 5.712 4.548 5.93 4.241 6.262 3.773 L 8.666 0.38 C 8.834 0.142 9.108 0 9.4 0 Z" fill="currentColor" fill-rule="nonzero"/>
  <path d="M 2.4 16.5 C 1.903 16.5 1.5 16.903 1.5 17.4 C 1.5 17.897 1.903 18.3 2.4 18.3 L 16.4 18.3 C 16.897 18.3 17.3 17.897 17.3 17.4 C 17.3 16.903 16.897 16.5 16.4 16.5 L 2.4 16.5 Z" fill="currentColor" fill-rule="nonzero"/>
</svg>
