<svg xmlns="http://www.w3.org/2000/svg" width="19.800" height="19.800" viewBox="0 0 19.800 19.800" fill="none">
  <path d="M 9.9 0 C 9.403 0 9 0.403 9 0.9 C 9 1.397 9.403 1.8 9.9 1.8 C 14.373 1.8 18 5.426 18 9.9 C 18 14.374 14.373 18 9.9 18 C 5.426 18 1.8 14.374 1.8 9.9 C 1.8 9.403 1.397 9 0.9 9 C 0.403 9 0 9.403 0 9.9 C 0 15.368 4.432 19.8 9.9 19.8 C 15.368 19.8 19.8 15.368 19.8 9.9 C 19.8 4.432 15.368 0 9.9 0 Z" fill="currentColor" fill-rule="nonzero"/>
  <path d="M 7.379 1.2 C 7.59 1.71 7.348 2.295 6.838 2.507 C 6.328 2.718 5.743 2.476 5.531 1.966 C 5.32 1.456 5.562 0.871 6.072 0.659 C 6.582 0.448 7.167 0.69 7.379 1.2 Z" fill="currentColor" fill-rule="nonzero"/>
  <path d="M 4.243 2.829 C 4.634 3.219 4.634 3.853 4.243 4.243 C 3.853 4.634 3.219 4.634 2.829 4.243 C 2.438 3.853 2.438 3.219 2.829 2.829 C 3.219 2.438 3.853 2.438 4.243 2.829 Z" fill="currentColor" fill-rule="nonzero"/>
  <path d="M 1.966 5.531 C 2.476 5.743 2.718 6.328 2.507 6.838 C 2.295 7.348 1.71 7.59 1.2 7.379 C 0.69 7.167 0.448 6.582 0.659 6.072 C 0.871 5.562 1.456 5.32 1.966 5.531 Z" fill="currentColor" fill-rule="nonzero"/>
  <path d="M 9.4 4.5 C 9.897 4.5 10.3 4.903 10.3 5.4 L 10.3 10.027 L 12.511 12.238 C 12.863 12.59 12.863 13.16 12.511 13.511 C 12.16 13.863 11.59 13.863 11.238 13.511 L 8.763 11.036 C 8.584 10.857 8.496 10.62 8.5 10.385 L 8.5 5.4 C 8.5 4.903 8.903 4.5 9.4 4.5 Z" fill="currentColor" fill-rule="nonzero"/>
</svg>
