<svg xmlns="http://www.w3.org/2000/svg" width="13.360" height="19.801" viewBox="0 0 13.360 19.801" fill="none">
  <path d="M 3.723 0 C 2.832 -0.001 2.055 -0.003 1.341 0.447 C 1.035 0.64 0.767 0.928 0.569 1.198 C 0.37 1.469 0.177 1.81 0.084 2.16 C -0.114 2.91 0.07 3.606 0.296 4.323 C 1.107 6.905 2.726 8.73 4.092 9.9 C 2.726 11.07 1.107 12.896 0.296 15.478 C 0.07 16.195 -0.114 16.89 0.084 17.64 C 0.177 17.99 0.37 18.332 0.569 18.603 C 0.767 18.873 1.035 19.16 1.341 19.353 C 2.055 19.803 2.832 19.802 3.723 19.801 L 9.637 19.801 C 10.528 19.802 11.305 19.803 12.019 19.353 C 12.325 19.16 12.593 18.873 12.791 18.603 C 12.99 18.332 13.183 17.99 13.276 17.64 C 13.474 16.89 13.29 16.195 13.064 15.478 C 12.253 12.896 10.634 11.07 9.268 9.9 C 10.634 8.73 12.253 6.905 13.064 4.323 C 13.29 3.606 13.474 2.91 13.276 2.16 C 13.183 1.81 12.99 1.469 12.791 1.198 C 12.593 0.928 12.325 0.64 12.019 0.447 C 11.305 -0.003 10.528 -0.001 9.637 0 L 3.723 0 Z M 1.843 3.168 C 1.692 2.541 2.217 1.8 3.18 1.8 L 10.18 1.8 C 11.143 1.8 11.668 2.541 11.517 3.168 C 10.877 5.838 9.179 7.669 7.797 8.782 C 7.086 9.355 7.086 10.445 7.797 11.018 C 9.179 12.132 10.877 13.963 11.517 16.632 C 11.668 17.259 11.143 18 10.18 18 L 3.18 18 C 2.217 18 1.692 17.259 1.843 16.632 C 2.483 13.963 4.181 12.132 5.563 11.018 C 6.274 10.445 6.274 9.355 5.563 8.782 C 4.181 7.669 2.483 5.838 1.843 3.168 Z" fill="currentColor" fill-rule="evenodd"/>
</svg>
