<svg xmlns="http://www.w3.org/2000/svg" width="20.800" height="15.800" viewBox="0 0 20.800 15.800" fill="none">
  <path d="M 6.51 0 C 5.985 0 5.543 -0.001 5.128 0.125 C 4.763 0.236 4.424 0.418 4.129 0.66 C 3.794 0.935 3.549 1.304 3.258 1.74 L 0.656 5.644 C 0.488 5.896 0.346 6.109 0.242 6.346 C 0.151 6.555 0.085 6.773 0.045 6.997 C 0 7.252 0 7.508 0 7.811 L 0 11.736 C 0 12.265 0 12.717 0.03 13.087 C 0.062 13.476 0.132 13.855 0.316 14.217 C 0.594 14.762 1.038 15.206 1.583 15.484 C 1.945 15.668 2.324 15.738 2.713 15.77 C 3.084 15.8 3.535 15.8 4.065 15.8 L 16.735 15.8 C 17.265 15.8 17.716 15.8 18.087 15.77 C 18.476 15.738 18.855 15.668 19.217 15.484 C 19.762 15.206 20.206 14.762 20.484 14.217 C 20.668 13.855 20.738 13.476 20.77 13.087 C 20.8 12.717 20.8 12.265 20.8 11.736 L 20.8 7.811 C 20.8 7.508 20.8 7.252 20.755 6.997 C 20.715 6.773 20.649 6.555 20.558 6.346 C 20.454 6.109 20.312 5.896 20.144 5.644 L 17.542 1.741 C 17.251 1.304 17.006 0.935 16.671 0.66 C 16.377 0.418 16.037 0.236 15.672 0.125 C 15.257 -0.001 14.815 0 14.29 0 L 6.51 0 Z M 5.756 1.821 C 5.841 1.804 5.945 1.8 6.399 1.8 L 14.401 1.8 C 14.855 1.8 14.959 1.804 15.044 1.821 C 15.258 1.864 15.454 1.969 15.608 2.123 C 15.67 2.185 15.731 2.269 15.982 2.646 L 18.218 6.001 L 14.649 6.001 C 13.419 6.001 12.651 7.004 12.321 7.75 C 11.993 8.489 11.255 9.001 10.399 9.001 C 9.544 9.001 8.805 8.489 8.478 7.75 C 8.147 7.004 7.38 6.001 6.149 6.001 L 2.582 6.001 L 4.818 2.646 C 5.069 2.269 5.13 2.185 5.192 2.123 C 5.346 1.969 5.542 1.864 5.756 1.821 Z M 1.8 7.801 L 1.8 12.1 C 1.8 12.915 1.811 13.108 1.854 13.24 C 1.963 13.575 2.225 13.837 2.56 13.946 C 2.692 13.989 2.885 14 3.7 14 L 17.1 14 C 17.915 14 18.108 13.989 18.24 13.946 C 18.575 13.837 18.837 13.575 18.946 13.24 C 18.989 13.108 19 12.915 19 12.1 L 19 7.801 L 14.649 7.801 C 14.322 7.801 14.078 8.226 13.966 8.48 C 13.361 9.845 11.993 10.801 10.399 10.801 C 8.806 10.801 7.438 9.845 6.832 8.48 C 6.72 8.226 6.477 7.801 6.149 7.801 L 1.8 7.801 Z" fill="currentColor" fill-rule="evenodd"/>
</svg>
