<svg xmlns="http://www.w3.org/2000/svg" width="22.300" height="14.300" viewBox="0 0 22.300 14.300" fill="none">
  <path d="M 17.15 4.152 C 16.597 4.152 16.15 4.599 16.15 5.152 C 16.15 5.704 16.597 6.152 17.15 6.152 C 17.702 6.152 18.15 5.704 18.15 5.152 C 18.15 4.599 17.702 4.152 17.15 4.152 Z" fill="currentColor" fill-rule="nonzero"/>
  <path d="M 4.15 9.152 C 4.15 8.599 4.597 8.152 5.15 8.152 C 5.702 8.152 6.15 8.599 6.15 9.152 C 6.15 9.704 5.702 10.152 5.15 10.152 C 4.597 10.152 4.15 9.704 4.15 9.152 Z" fill="currentColor" fill-rule="nonzero"/>
  <path d="M 17.15 8.152 C 16.597 8.152 16.15 8.599 16.15 9.152 C 16.15 9.704 16.597 10.152 17.15 10.152 C 17.702 10.152 18.15 9.704 18.15 9.152 C 18.15 8.599 17.702 8.152 17.15 8.152 Z" fill="currentColor" fill-rule="nonzero"/>
  <path d="M 8.9 8.252 C 8.403 8.252 8 8.655 8 9.152 C 8 9.649 8.403 10.052 8.9 10.052 L 13.4 10.052 C 13.897 10.052 14.3 9.649 14.3 9.152 C 14.3 8.655 13.897 8.252 13.4 8.252 L 8.9 8.252 Z" fill="currentColor" fill-rule="nonzero"/>
  <path d="M 12.15 5.152 C 12.15 4.599 12.597 4.152 13.15 4.152 C 13.702 4.152 14.15 4.599 14.15 5.152 C 14.15 5.704 13.702 6.152 13.15 6.152 C 12.597 6.152 12.15 5.704 12.15 5.152 Z" fill="currentColor" fill-rule="nonzero"/>
  <path d="M 9.15 4.152 C 8.597 4.152 8.15 4.599 8.15 5.152 C 8.15 5.704 8.597 6.152 9.15 6.152 C 9.702 6.152 10.15 5.704 10.15 5.152 C 10.15 4.599 9.702 4.152 9.15 4.152 Z" fill="currentColor" fill-rule="nonzero"/>
  <path d="M 4.15 5.152 C 4.15 4.599 4.597 4.152 5.15 4.152 C 5.702 4.152 6.15 4.599 6.15 5.152 C 6.15 5.704 5.702 6.152 5.15 6.152 C 4.597 6.152 4.15 5.704 4.15 5.152 Z" fill="currentColor" fill-rule="nonzero"/>
  <path d="M 4.065 0 C 3.535 0 3.084 0 2.713 0.03 C 2.324 0.062 1.945 0.132 1.583 0.316 C 1.038 0.594 0.594 1.038 0.316 1.583 C 0.132 1.945 0.062 2.324 0.03 2.713 C 0 3.084 0 3.535 0 4.065 L 0 10.235 C 0 10.765 0 11.216 0.03 11.587 C 0.062 11.976 0.132 12.355 0.316 12.717 C 0.594 13.262 1.038 13.706 1.583 13.984 C 1.945 14.168 2.324 14.238 2.713 14.27 C 3.084 14.3 3.535 14.3 4.065 14.3 L 18.235 14.3 C 18.765 14.3 19.216 14.3 19.587 14.27 C 19.976 14.238 20.355 14.168 20.717 13.984 C 21.262 13.706 21.706 13.262 21.984 12.717 C 22.168 12.355 22.238 11.976 22.27 11.587 C 22.3 11.216 22.3 10.765 22.3 10.235 L 22.3 4.065 C 22.3 3.535 22.3 3.084 22.27 2.713 C 22.238 2.324 22.168 1.945 21.984 1.583 C 21.706 1.038 21.262 0.594 20.717 0.316 C 20.355 0.132 19.976 0.062 19.587 0.03 C 19.216 0 18.765 0 18.235 0 L 4.065 0 Z M 2.56 1.857 C 2.692 1.814 2.885 1.803 3.7 1.803 L 18.6 1.803 C 19.415 1.803 19.608 1.814 19.74 1.857 C 20.075 1.965 20.337 2.228 20.446 2.563 C 20.489 2.694 20.5 2.888 20.5 3.703 L 20.5 10.603 C 20.5 11.417 20.489 11.611 20.446 11.743 C 20.337 12.078 20.075 12.34 19.74 12.449 C 19.608 12.492 19.415 12.503 18.6 12.503 L 3.7 12.503 C 2.885 12.503 2.692 12.492 2.56 12.449 C 2.225 12.34 1.963 12.078 1.854 11.743 C 1.811 11.611 1.8 11.417 1.8 10.603 L 1.8 3.703 C 1.8 2.888 1.811 2.694 1.854 2.563 C 1.963 2.228 2.225 1.965 2.56 1.857 Z" fill="currentColor" fill-rule="evenodd"/>
</svg>
