<svg xmlns="http://www.w3.org/2000/svg" width="18.650" height="15" viewBox="0 0 18.650 15" fill="none">
  <path d="M 1.25 2.5 C 1.94 2.5 2.5 1.94 2.5 1.25 C 2.5 0.56 1.94 0 1.25 0 C 0.56 0 0 0.56 0 1.25 C 0 1.94 0.56 2.5 1.25 2.5 Z" fill="currentColor" fill-rule="nonzero"/>
  <path d="M 4.85 1.25 C 4.85 0.753 5.253 0.35 5.75 0.35 L 17.75 0.35 C 18.247 0.35 18.65 0.753 18.65 1.25 C 18.65 1.747 18.247 2.15 17.75 2.15 L 5.75 2.15 C 5.253 2.15 4.85 1.747 4.85 1.25 Z" fill="currentColor" fill-rule="nonzero"/>
  <path d="M 1.25 8.75 C 1.94 8.75 2.5 8.19 2.5 7.5 C 2.5 6.81 1.94 6.25 1.25 6.25 C 0.56 6.25 0 6.81 0 7.5 C 0 8.19 0.56 8.75 1.25 8.75 Z" fill="currentColor" fill-rule="nonzero"/>
  <path d="M 4.85 7.5 C 4.85 7.003 5.253 6.6 5.75 6.6 L 17.75 6.6 C 18.247 6.6 18.65 7.003 18.65 7.5 C 18.65 7.997 18.247 8.4 17.75 8.4 L 5.75 8.4 C 5.253 8.4 4.85 7.997 4.85 7.5 Z" fill="currentColor" fill-rule="nonzero"/>
  <path d="M 1.25 15 C 1.94 15 2.5 14.44 2.5 13.75 C 2.5 13.06 1.94 12.5 1.25 12.5 C 0.56 12.5 0 13.06 0 13.75 C 0 14.44 0.56 15 1.25 15 Z" fill="currentColor" fill-rule="nonzero"/>
  <path d="M 5.75 12.85 C 5.253 12.85 4.85 13.253 4.85 13.75 C 4.85 14.247 5.253 14.65 5.75 14.65 L 17.75 14.65 C 18.247 14.65 18.65 14.247 18.65 13.75 C 18.65 13.253 18.247 12.85 17.75 12.85 L 5.75 12.85 Z" fill="currentColor" fill-rule="nonzero"/>
</svg>
