<svg xmlns="http://www.w3.org/2000/svg" width="19.800" height="18.146" viewBox="0 0 19.800 18.146" fill="none">
  <path d="M 10.576 0.08 C 10.132 -0.027 9.669 -0.027 9.224 0.08 C 8.717 0.201 8.267 0.502 7.732 0.86 L 1.74 4.854 C 1.304 5.145 0.935 5.39 0.66 5.725 C 0.418 6.02 0.236 6.359 0.125 6.724 C -0.001 7.139 0 7.582 0 8.106 L 0 14.082 C 0 14.612 0 15.063 0.03 15.433 C 0.062 15.822 0.132 16.201 0.316 16.563 C 0.594 17.109 1.038 17.552 1.584 17.83 C 1.945 18.015 2.324 18.084 2.713 18.116 C 3.084 18.146 3.535 18.146 4.065 18.146 L 15.735 18.146 C 16.265 18.146 16.717 18.146 17.087 18.116 C 17.476 18.084 17.855 18.015 18.217 17.83 C 18.762 17.552 19.206 17.109 19.484 16.563 C 19.668 16.201 19.738 15.822 19.77 15.433 C 19.8 15.063 19.8 14.612 19.8 14.082 L 19.8 8.106 C 19.801 7.582 19.801 7.139 19.675 6.724 C 19.564 6.359 19.383 6.02 19.14 5.725 C 18.865 5.39 18.497 5.145 18.06 4.854 L 12.068 0.86 C 11.533 0.502 11.083 0.201 10.576 0.08 Z M 9.52 1.868 C 9.765 1.777 10.035 1.777 10.28 1.868 C 10.378 1.904 10.489 1.97 10.954 2.28 L 17.279 6.497 L 11.181 10.565 C 10.48 11.032 10.315 11.127 10.161 11.163 C 9.993 11.204 9.817 11.204 9.649 11.164 C 9.495 11.127 9.33 11.032 8.629 10.566 L 2.522 6.497 L 8.846 2.28 C 9.312 1.97 9.422 1.904 9.52 1.868 Z M 1.8 8.179 L 1.8 14.446 C 1.8 15.261 1.811 15.455 1.854 15.586 C 1.963 15.921 2.225 16.183 2.56 16.292 C 2.692 16.335 2.886 16.346 3.7 16.346 L 16.1 16.346 C 16.915 16.346 17.108 16.335 17.24 16.292 C 17.575 16.183 17.837 15.921 17.946 15.586 C 17.989 15.455 18 15.261 18 14.446 L 18 8.18 L 12.073 12.134 C 11.538 12.491 11.088 12.792 10.581 12.914 C 10.137 13.021 9.674 13.021 9.23 12.914 C 8.723 12.793 8.273 12.492 7.737 12.135 L 1.8 8.179 Z" fill="currentColor" fill-rule="evenodd"/>
</svg>
