<svg xmlns="http://www.w3.org/2000/svg" width="19.800" height="19.799" viewBox="0 0 19.800 19.799" fill="none">
  <path d="M 13.15 7.75 C 12.653 7.75 12.25 8.153 12.25 8.65 C 12.25 9.147 12.653 9.55 13.15 9.55 L 15.15 9.55 C 15.647 9.55 16.05 9.147 16.05 8.65 C 16.05 8.153 15.647 7.75 15.15 7.75 L 13.15 7.75 Z" fill="currentColor" fill-rule="nonzero"/>
  <path d="M 17.671 4.425 C 17.246 4.209 16.794 4.109 16.3 4.058 C 16.3 3.531 16.3 3.082 16.27 2.713 C 16.238 2.324 16.168 1.945 15.984 1.583 C 15.706 1.038 15.262 0.594 14.717 0.316 C 14.355 0.132 13.976 0.062 13.587 0.03 C 13.217 0 12.765 0 12.236 0 L 7.565 0 C 7.035 0 6.584 0 6.213 0.03 C 5.824 0.062 5.445 0.132 5.084 0.316 C 4.538 0.594 4.094 1.038 3.816 1.583 C 3.632 1.945 3.562 2.324 3.53 2.713 C 3.5 3.082 3.5 3.531 3.5 4.058 C 3.006 4.109 2.554 4.209 2.129 4.425 C 1.396 4.799 0.799 5.395 0.425 6.129 C 0.186 6.598 0.089 7.1 0.044 7.656 C 0 8.193 0 8.854 0 9.662 L 0 10.888 C 0 11.696 0 12.356 0.044 12.893 C 0.089 13.449 0.186 13.951 0.425 14.42 C 0.799 15.154 1.396 15.751 2.129 16.125 C 2.555 16.342 3.008 16.441 3.504 16.492 C 3.508 16.709 3.516 16.907 3.53 17.086 C 3.562 17.475 3.632 17.854 3.816 18.216 C 4.094 18.762 4.538 19.205 5.083 19.483 C 5.445 19.668 5.824 19.737 6.213 19.769 C 6.584 19.799 7.035 19.799 7.565 19.799 L 12.235 19.799 C 12.765 19.799 13.217 19.799 13.587 19.769 C 13.976 19.737 14.355 19.668 14.717 19.483 C 15.262 19.205 15.706 18.762 15.984 18.216 C 16.168 17.854 16.238 17.475 16.27 17.086 C 16.284 16.907 16.292 16.709 16.296 16.492 C 16.792 16.441 17.245 16.342 17.671 16.125 C 18.404 15.751 19.001 15.154 19.375 14.42 C 19.614 13.951 19.711 13.449 19.756 12.893 C 19.8 12.356 19.8 11.696 19.8 10.888 L 19.8 9.662 C 19.8 8.854 19.8 8.193 19.756 7.656 C 19.711 7.1 19.614 6.598 19.375 6.129 C 19.001 5.395 18.404 4.799 17.671 4.425 Z M 5.3 3.7 L 5.3 4 C 5.417 4 5.538 4 5.662 4 L 14.138 4 C 14.262 4 14.383 4 14.5 4 L 14.5 3.7 C 14.5 2.885 14.489 2.692 14.446 2.56 C 14.337 2.225 14.075 1.963 13.74 1.854 C 13.609 1.811 13.415 1.8 12.6 1.8 L 7.2 1.8 C 6.386 1.8 6.192 1.811 6.06 1.854 C 5.725 1.963 5.463 2.225 5.354 2.56 C 5.311 2.692 5.3 2.885 5.3 3.7 Z M 16.293 14.679 C 16.557 14.641 16.724 14.587 16.853 14.521 C 17.249 14.32 17.57 13.998 17.771 13.603 C 17.859 13.43 17.926 13.192 17.962 12.747 C 17.999 12.292 18 11.705 18 10.85 L 18 9.7 C 18 8.845 17.999 8.258 17.962 7.803 C 17.926 7.358 17.859 7.119 17.771 6.946 C 17.57 6.551 17.249 6.23 16.853 6.029 C 16.681 5.941 16.442 5.874 15.997 5.838 C 15.542 5.801 14.955 5.8 14.1 5.8 L 5.7 5.8 C 4.845 5.8 4.258 5.801 3.803 5.838 C 3.358 5.874 3.119 5.941 2.947 6.029 C 2.551 6.23 2.23 6.551 2.029 6.946 C 1.941 7.119 1.874 7.358 1.838 7.803 C 1.801 8.258 1.8 8.845 1.8 9.7 L 1.8 10.85 C 1.8 11.705 1.801 12.292 1.838 12.747 C 1.874 13.192 1.941 13.43 2.029 13.603 C 2.23 13.998 2.551 14.32 2.947 14.521 C 3.076 14.587 3.243 14.641 3.507 14.679 C 3.511 14.512 3.519 14.356 3.53 14.213 C 3.562 13.823 3.632 13.445 3.816 13.083 C 4.094 12.537 4.538 12.094 5.083 11.815 C 5.445 11.631 5.824 11.561 6.213 11.53 C 6.584 11.499 7.035 11.499 7.565 11.499 L 12.235 11.499 C 12.765 11.499 13.217 11.499 13.587 11.53 C 13.976 11.561 14.355 11.631 14.717 11.815 C 15.262 12.094 15.706 12.537 15.984 13.083 C 16.168 13.445 16.238 13.823 16.27 14.213 C 16.282 14.356 16.289 14.512 16.293 14.679 Z M 6.06 13.354 C 6.192 13.312 6.386 13.301 7.2 13.301 L 12.6 13.301 C 13.415 13.301 13.609 13.312 13.74 13.354 C 14.075 13.463 14.338 13.726 14.446 14.061 C 14.489 14.192 14.5 14.386 14.5 15.201 L 14.5 16.101 C 14.5 16.915 14.489 17.109 14.446 17.24 C 14.338 17.575 14.075 17.838 13.74 17.947 C 13.609 17.989 13.415 18.001 12.6 18.001 L 7.2 18.001 C 6.386 18.001 6.192 17.989 6.06 17.947 C 5.725 17.838 5.463 17.575 5.354 17.24 C 5.311 17.109 5.3 16.915 5.3 16.101 L 5.3 15.201 C 5.3 14.386 5.311 14.192 5.354 14.061 C 5.463 13.726 5.725 13.463 6.06 13.354 Z" fill="currentColor" fill-rule="evenodd"/>
</svg>
