<svg xmlns="http://www.w3.org/2000/svg" width="10.167" height="17.517" viewBox="0 0 10.167 17.517" fill="none">
  <path d="M 5.048 12.352 C 4.464 12.352 3.982 11.874 4.046 11.294 C 4.531 6.892 8.053 7.201 8.053 4.556 C 8.053 2.982 6.809 1.972 5.048 1.972 C 3.541 1.972 2.517 2.698 2.171 3.979 C 2.019 4.542 1.569 5.025 0.985 5.025 C 0.402 5.025 -0.083 4.548 0.012 3.973 C 0.415 1.527 2.259 0 5.048 0 C 7.983 0 10.167 1.691 10.167 4.556 C 10.167 8.12 6.77 7.904 6.189 11.297 C 6.09 11.872 5.631 12.352 5.048 12.352 Z" fill="currentColor" fill-rule="nonzero"/>
  <path d="M 3.592 16.061 C 3.592 16.907 4.202 17.517 5.048 17.517 C 5.893 17.517 6.504 16.907 6.504 16.061 C 6.504 15.216 5.893 14.605 5.048 14.605 C 4.202 14.605 3.592 15.216 3.592 16.061 Z" fill="currentColor" fill-rule="nonzero"/>
</svg>
