<svg xmlns="http://www.w3.org/2000/svg" width="19.300" height="13.550" viewBox="0 0 19.300 13.550" fill="none">
  <path d="M 6.786 0.264 C 7.138 0.615 7.138 1.185 6.786 1.536 C 6.547 1.776 6.312 2.009 6.082 2.238 C 4.963 3.348 3.967 4.336 3.198 5.304 C 2.764 5.85 2.43 6.357 2.197 6.838 C 2.898 6.164 3.851 5.75 4.9 5.75 C 7.054 5.75 8.8 7.496 8.8 9.65 C 8.8 11.804 7.054 13.55 4.9 13.55 L 4.856 13.55 C 3.353 13.54 2.108 13.025 1.246 12.063 C 0.388 11.106 0 9.808 0 8.4 C 0 6.844 0.778 5.456 1.789 4.184 C 2.631 3.125 3.72 2.045 4.838 0.935 C 5.063 0.713 5.289 0.489 5.514 0.264 C 5.865 -0.088 6.435 -0.088 6.786 0.264 Z" fill="currentColor" fill-rule="nonzero"/>
  <path d="M 17.286 0.264 C 17.638 0.615 17.638 1.185 17.286 1.536 C 17.047 1.776 16.812 2.009 16.582 2.237 C 15.464 3.347 14.467 4.336 13.698 5.304 C 13.264 5.85 12.93 6.357 12.697 6.838 C 13.398 6.164 14.351 5.75 15.4 5.75 C 17.554 5.75 19.3 7.496 19.3 9.65 C 19.3 11.804 17.554 13.55 15.4 13.55 L 15.356 13.55 C 13.853 13.54 12.608 13.025 11.746 12.063 C 10.888 11.106 10.5 9.808 10.5 8.4 C 10.5 6.844 11.278 5.456 12.289 4.184 C 13.131 3.125 14.22 2.045 15.338 0.935 C 15.563 0.713 15.788 0.489 16.014 0.264 C 16.365 -0.088 16.935 -0.088 17.286 0.264 Z" fill="currentColor" fill-rule="nonzero"/>
</svg>
