<svg xmlns="http://www.w3.org/2000/svg" width="18.800" height="18.800" viewBox="0 0 18.800 18.800" fill="none">
  <path d="M 6.854 4.172 L 5.536 2.853 C 8.45 1.13 12.27 1.521 14.774 4.026 C 17.742 6.994 17.742 11.806 14.774 14.774 C 11.806 17.742 6.994 17.742 4.026 14.774 C 2.542 13.29 1.8 11.346 1.8 9.399 C 1.8 8.902 1.397 8.499 0.9 8.499 C 0.403 8.499 0 8.902 0 9.399 C 0 11.803 0.918 14.211 2.753 16.047 C 6.424 19.718 12.376 19.718 16.047 16.047 C 19.718 12.376 19.718 6.424 16.047 2.753 C 12.835 -0.459 7.879 -0.86 4.23 1.547 L 2.965 0.283 C 2.708 0.025 2.321 -0.052 1.984 0.088 C 1.648 0.227 1.429 0.555 1.429 0.919 L 1.429 4.808 C 1.429 5.047 1.523 5.276 1.692 5.444 C 1.861 5.613 2.09 5.708 2.329 5.708 L 6.218 5.708 C 6.582 5.708 6.91 5.489 7.049 5.153 C 7.189 4.816 7.112 4.429 6.854 4.172 Z" fill="currentColor" fill-rule="nonzero"/>
</svg>
