<svg xmlns="http://www.w3.org/2000/svg" width="18.300" height="21.800" viewBox="0 0 18.300 21.800" fill="none">
  <path d="M 9.15 14.301 C 8.653 14.301 8.25 13.898 8.25 13.401 L 8.25 3.021 L 6.15 5.048 C 5.793 5.394 5.223 5.384 4.878 5.026 C 4.533 4.669 4.543 4.099 4.9 3.754 L 8.5 0.278 C 8.664 0.107 8.895 0 9.15 0 C 9.406 0 9.637 0.107 9.801 0.278 L 13.4 3.754 C 13.758 4.099 13.768 4.669 13.423 5.026 C 13.077 5.384 12.508 5.394 12.15 5.048 L 10.05 3.021 L 10.05 13.401 C 10.05 13.898 9.647 14.301 9.15 14.301 Z" fill="currentColor" fill-rule="nonzero"/>
  <path d="M 4.251 7 C 4.747 7 5.15 7.403 5.15 7.899 C 5.15 8.396 4.747 8.799 4.251 8.799 L 3.701 8.799 C 2.886 8.799 2.692 8.81 2.561 8.853 C 2.226 8.962 1.963 9.224 1.854 9.559 C 1.812 9.691 1.801 9.884 1.801 10.699 L 1.801 18.099 C 1.801 18.914 1.812 19.107 1.854 19.239 C 1.963 19.574 2.226 19.836 2.561 19.945 C 2.692 19.988 2.886 19.999 3.701 19.999 L 14.601 19.999 C 15.415 19.999 15.609 19.988 15.74 19.945 C 16.075 19.836 16.338 19.574 16.447 19.239 C 16.489 19.107 16.501 18.914 16.501 18.099 L 16.501 10.699 C 16.501 9.884 16.489 9.691 16.447 9.559 C 16.338 9.224 16.075 8.962 15.74 8.853 C 15.609 8.81 15.415 8.799 14.601 8.799 L 14.05 8.799 C 13.553 8.799 13.15 8.396 13.15 7.899 C 13.15 7.403 13.553 7 14.05 7 L 14.235 7 C 14.765 7 15.216 7 15.587 7.03 C 15.976 7.062 16.355 7.131 16.717 7.316 C 17.262 7.594 17.706 8.038 17.984 8.583 C 18.168 8.945 18.238 9.324 18.27 9.713 C 18.3 10.083 18.3 10.534 18.3 11.064 L 18.3 17.735 C 18.3 18.265 18.3 18.716 18.27 19.087 C 18.238 19.476 18.168 19.854 17.984 20.216 C 17.706 20.762 17.262 21.206 16.717 21.484 C 16.355 21.668 15.976 21.738 15.587 21.77 C 15.216 21.8 14.765 21.8 14.235 21.8 L 4.065 21.8 C 3.535 21.8 3.084 21.8 2.713 21.77 C 2.324 21.738 1.945 21.668 1.583 21.484 C 1.038 21.206 0.594 20.762 0.316 20.216 C 0.132 19.854 0.062 19.476 0.03 19.087 C 0 18.716 0 18.265 0 17.735 L 0 11.064 C 0 10.535 0 10.083 0.03 9.713 C 0.062 9.324 0.132 8.945 0.316 8.583 C 0.594 8.038 1.038 7.594 1.583 7.316 C 1.945 7.131 2.324 7.062 2.713 7.03 C 3.084 7 3.535 7 4.065 7 L 4.251 7 Z" fill="currentColor" fill-rule="nonzero"/>
</svg>
