<svg xmlns="http://www.w3.org/2000/svg" width="23.300" height="15.800" viewBox="0 0 23.300 15.800" fill="none">
  <path d="M 5.662 0 C 4.854 0 4.193 0 3.656 0.044 C 3.1 0.089 2.598 0.186 2.129 0.425 C 1.396 0.799 0.799 1.396 0.425 2.129 C 0.186 2.598 0.089 3.1 0.044 3.656 C 0 4.193 0 4.854 0 5.662 L 0 10.138 C 0 10.946 0 11.607 0.044 12.144 C 0.089 12.7 0.186 13.202 0.425 13.671 C 0.799 14.404 1.396 15.001 2.129 15.375 C 2.598 15.614 3.1 15.711 3.656 15.756 C 4.193 15.8 4.854 15.8 5.662 15.8 L 11.138 15.8 C 11.946 15.8 12.607 15.8 13.144 15.756 C 13.7 15.711 14.202 15.614 14.671 15.375 C 15.404 15.001 16.001 14.404 16.375 13.671 C 16.614 13.202 16.711 12.7 16.756 12.144 C 16.773 11.931 16.784 11.7 16.79 11.448 L 19.135 13.612 C 19.533 13.979 19.876 14.296 20.166 14.519 C 20.443 14.733 20.829 14.99 21.304 15.014 C 21.901 15.045 22.477 14.792 22.859 14.333 C 23.164 13.968 23.236 13.51 23.267 13.161 C 23.3 12.797 23.3 12.33 23.3 11.788 L 23.3 4.014 C 23.3 3.472 23.3 3.005 23.267 2.641 C 23.236 2.292 23.164 1.834 22.859 1.468 C 22.477 1.009 21.901 0.757 21.304 0.787 C 20.829 0.811 20.443 1.069 20.166 1.283 C 19.876 1.506 19.533 1.822 19.135 2.19 L 16.79 4.354 C 16.784 4.101 16.774 3.869 16.756 3.656 C 16.711 3.1 16.614 2.598 16.375 2.129 C 16.001 1.396 15.404 0.799 14.671 0.425 C 14.202 0.186 13.7 0.089 13.144 0.044 C 12.607 0 11.946 0 11.138 0 L 5.662 0 Z M 16.8 8.815 L 16.8 6.987 C 16.8 6.919 16.801 6.875 16.803 6.839 C 16.803 6.823 16.804 6.813 16.805 6.808 C 16.807 6.802 16.809 6.796 16.813 6.79 C 16.816 6.786 16.823 6.778 16.834 6.767 C 16.871 6.729 16.924 6.68 17.025 6.587 L 20.325 3.541 C 20.763 3.137 21.046 2.877 21.264 2.709 C 21.348 2.644 21.403 2.609 21.434 2.591 C 21.438 2.592 21.442 2.594 21.446 2.596 C 21.453 2.631 21.465 2.696 21.474 2.801 C 21.499 3.075 21.5 3.46 21.5 4.055 L 21.5 11.747 C 21.5 12.342 21.499 12.727 21.474 13 C 21.465 13.106 21.453 13.171 21.446 13.206 C 21.442 13.208 21.438 13.209 21.434 13.211 C 21.403 13.193 21.348 13.158 21.264 13.093 C 21.046 12.925 20.763 12.665 20.325 12.261 L 17.025 9.215 C 16.924 9.122 16.871 9.073 16.834 9.035 C 16.823 9.023 16.816 9.016 16.813 9.012 C 16.809 9.006 16.807 9 16.805 8.994 C 16.804 8.989 16.803 8.979 16.803 8.963 C 16.801 8.927 16.8 8.882 16.8 8.815 Z M 15 6.917 L 15 5.7 C 15 4.845 14.999 4.258 14.962 3.803 C 14.926 3.358 14.859 3.119 14.771 2.947 C 14.57 2.551 14.249 2.23 13.853 2.029 C 13.681 1.941 13.442 1.874 12.997 1.838 C 12.542 1.801 11.955 1.8 11.1 1.8 L 5.7 1.8 C 4.845 1.8 4.258 1.801 3.803 1.838 C 3.358 1.874 3.119 1.941 2.947 2.029 C 2.551 2.23 2.23 2.551 2.029 2.947 C 1.941 3.119 1.874 3.358 1.838 3.803 C 1.801 4.258 1.8 4.845 1.8 5.7 L 1.8 10.1 C 1.8 10.955 1.801 11.542 1.838 11.997 C 1.874 12.442 1.941 12.681 2.029 12.853 C 2.23 13.249 2.551 13.57 2.947 13.771 C 3.119 13.859 3.358 13.926 3.803 13.962 C 4.258 13.999 4.845 14 5.7 14 L 11.1 14 C 11.955 14 12.542 13.999 12.997 13.962 C 13.442 13.926 13.681 13.859 13.853 13.771 C 14.249 13.57 14.57 13.249 14.771 12.853 C 14.859 12.681 14.926 12.442 14.962 11.997 C 14.999 11.542 15 10.955 15 10.1 L 15 8.885 C 15 8.84 15 8.796 15 8.753 L 15 8.7 L 15 7.101 L 15 7.048 C 15 7.006 15 6.962 15 6.917 Z" fill="currentColor" fill-rule="evenodd"/>
</svg>
