<svg xmlns="http://www.w3.org/2000/svg" width="5029.523" height="617.900" viewBox="0 0 5029.523 617.900" fill="none">
  <path d="M 522.11 4.722 L 522.11 468.145 L 435.766 468.145 L 435.766 419.577 L 318.393 419.577 L 318.393 360.89 L 435.766 360.89 L 435.766 4.722 L 522.11 4.722 Z M 0 276.57 C 112.314 275.895 264.09 274.209 393.943 258.357 L 398.665 319.742 C 350.097 327.836 299.842 333.57 250.262 337.28 L 250.262 453.979 L 163.918 453.979 L 163.918 538.299 L 535.601 538.299 L 535.601 607.104 L 78.249 607.104 L 78.249 423.624 L 163.918 423.624 L 163.918 342.339 C 108.942 344.363 56.663 344.7 10.118 344.7 L 0 276.57 Z M 45.196 135.587 C 45.196 70.154 108.267 25.296 199.67 25.633 C 288.712 25.296 352.458 70.154 352.795 135.587 C 352.458 201.356 288.712 243.854 199.67 243.516 C 108.267 243.854 45.196 201.356 45.196 135.587 Z M 126.817 135.587 C 126.48 165.267 155.823 181.794 199.67 181.457 C 240.818 181.794 270.499 165.267 271.173 135.587 C 270.499 105.231 240.818 88.367 199.67 88.367 C 155.823 88.367 126.48 105.231 126.817 135.587 Z" fill="currentColor" fill-rule="nonzero"/>
  <path d="M 945.059 54.639 L 945.059 124.794 L 717.732 124.794 L 717.732 225.978 L 919.426 225.978 L 919.426 293.434 L 717.732 293.434 L 717.732 409.458 C 811.834 408.784 886.71 405.074 972.716 391.92 L 980.811 461.399 C 884.349 475.565 796.319 478.263 685.354 478.263 L 632.738 478.263 L 632.738 54.639 L 945.059 54.639 Z M 1028.03 617.897 L 1028.03 4.047 L 1115.049 4.047 L 1115.049 617.897 L 1028.03 617.897 Z" fill="currentColor" fill-rule="nonzero"/>
  <path d="M 1696.52 288.037 L 1696.52 356.843 L 1262.103 356.843 L 1262.103 55.314 L 1691.798 55.314 L 1691.798 124.794 L 1347.097 124.794 L 1347.097 288.037 L 1696.52 288.037 Z M 1195.996 543.021 L 1195.996 472.192 L 1757.905 472.192 L 1757.905 543.021 L 1195.996 543.021 Z" fill="currentColor" fill-rule="nonzero"/>
  <path d="M 2512.063 320.416 L 2512.063 387.872 L 1950.829 387.872 L 1950.829 320.416 L 2188.274 320.416 L 2188.274 282.641 L 2020.983 282.641 L 2020.983 18.888 L 2446.631 18.888 L 2446.631 84.995 L 2107.327 84.995 L 2107.327 119.397 L 2432.465 119.397 L 2432.465 181.457 L 2107.327 181.457 L 2107.327 216.534 L 2452.028 216.534 L 2452.028 282.641 L 2274.618 282.641 L 2274.618 320.416 L 2512.063 320.416 Z M 2016.261 516.713 C 2016.261 451.956 2093.836 415.529 2231.446 416.204 C 2366.696 415.529 2444.607 451.956 2445.282 516.713 C 2444.607 582.82 2366.696 618.235 2231.446 617.897 C 2093.836 618.235 2016.261 582.82 2016.261 516.713 Z M 2102.605 516.713 C 2101.931 543.021 2143.079 554.489 2231.446 554.489 C 2317.79 554.489 2358.601 543.021 2358.938 516.713 C 2358.601 491.08 2317.79 479.275 2231.446 479.613 C 2143.079 479.275 2101.931 491.08 2102.605 516.713 Z" fill="currentColor" fill-rule="nonzero"/>
  <path d="M 3036.197 4.047 L 3036.197 151.776 L 3119.168 151.776 L 3119.168 223.28 L 3036.197 223.28 L 3036.197 363.588 L 2949.853 363.588 L 2949.853 4.047 L 3036.197 4.047 Z M 2549.164 125.468 L 2549.164 58.012 L 2688.798 58.012 L 2688.798 0 L 2774.468 0 L 2774.468 58.012 L 2913.427 58.012 L 2913.427 125.468 L 2549.164 125.468 Z M 2578.845 251.611 C 2578.845 186.179 2640.905 143.007 2731.296 143.007 C 2820.675 143.007 2882.397 186.179 2882.397 251.611 C 2882.397 317.043 2820.675 360.215 2731.296 360.215 C 2640.905 360.215 2578.845 317.043 2578.845 251.611 Z M 2634.159 611.152 L 2634.159 387.198 L 2719.828 387.198 L 2719.828 433.742 L 2949.853 433.742 L 2949.853 387.198 L 3036.197 387.198 L 3036.197 611.152 L 2634.159 611.152 Z M 2663.165 251.611 C 2662.828 281.292 2690.147 297.144 2731.296 297.481 C 2772.781 297.144 2800.775 281.292 2800.775 251.611 C 2800.775 222.942 2772.781 205.741 2731.296 206.416 C 2690.147 205.741 2662.828 222.942 2663.165 251.611 Z M 2719.828 543.696 L 2949.853 543.696 L 2949.853 499.849 L 2719.828 499.849 L 2719.828 543.696 Z" fill="currentColor" fill-rule="nonzero"/>
  <path d="M 3867.256 478.938 L 3867.256 549.767 L 3305.347 549.767 L 3305.347 478.938 L 3542.117 478.938 L 3542.117 386.523 L 3370.104 386.523 L 3370.104 180.108 L 3717.503 180.108 L 3717.503 112.652 L 3369.43 112.652 L 3369.43 43.846 L 3802.498 43.846 L 3802.498 247.564 L 3456.448 247.564 L 3456.448 316.369 L 3816.664 316.369 L 3816.664 386.523 L 3627.787 386.523 L 3627.787 478.938 L 3867.256 478.938 Z" fill="currentColor" fill-rule="nonzero"/>
  <path d="M 4393.413 60.71 L 4393.413 134.238 C 4393.076 218.558 4393.076 301.866 4371.152 429.021 L 4284.134 421.6 C 4307.406 303.552 4307.406 215.859 4307.744 134.238 L 4307.744 129.516 L 3960.345 129.516 L 3960.345 60.71 L 4393.413 60.71 Z M 3902.333 537.625 L 3902.333 466.796 L 4462.218 466.796 L 4462.218 537.625 L 3902.333 537.625 Z" fill="currentColor" fill-rule="nonzero"/>
  <path d="M 5013.334 4.722 L 5013.334 445.885 L 4926.99 445.885 L 4926.99 4.722 L 5013.334 4.722 Z M 4508.763 198.321 C 4508.763 108.267 4582.29 43.509 4676.728 43.846 C 4770.829 43.509 4844.356 108.267 4844.693 198.321 C 4844.356 289.724 4770.829 354.144 4676.728 354.144 C 4582.29 354.144 4508.763 289.724 4508.763 198.321 Z M 4593.083 198.321 C 4592.408 249.587 4628.497 279.268 4676.728 279.268 C 4723.272 279.268 4759.362 249.587 4759.699 198.321 C 4759.362 148.403 4723.272 118.385 4676.728 118.723 C 4628.497 118.385 4592.408 148.403 4593.083 198.321 Z M 4601.852 607.104 L 4601.852 401.364 L 4688.87 401.364 L 4688.87 538.299 L 5029.523 538.299 L 5029.523 607.104 L 4601.852 607.104 Z" fill="currentColor" fill-rule="nonzero"/>
</svg>
