<svg xmlns="http://www.w3.org/2000/svg" width="4806.244" height="507.270" viewBox="0 0 4806.244 507.270" fill="none">
  <path d="M 0 9.444 L 106.581 9.444 L 248.913 497.826 L 177.072 365.275 L 248.913 365.275 L 248.913 497.826 L 156.498 497.826 L 0 9.444 Z M 310.635 9.444 L 380.789 9.444 L 388.884 62.397 L 388.884 180.108 L 324.464 180.108 L 388.884 62.397 L 264.428 497.826 L 177.072 497.826 L 310.635 9.444 Z M 324.464 62.397 L 332.558 9.444 L 402.375 9.444 L 535.938 497.826 L 464.098 365.275 L 535.938 365.275 L 535.938 497.826 L 448.583 497.826 L 324.464 62.397 Z M 606.767 9.444 L 713.01 9.444 L 556.512 497.826 L 464.098 497.826 L 606.767 9.444 Z" fill="currentColor" fill-rule="nonzero"/>
  <path d="M 995.989 323.789 C 995.989 364.712 990.929 398.778 980.811 425.985 C 970.693 453.192 955.965 473.542 936.627 487.033 C 917.515 500.524 894.13 507.27 866.473 507.27 C 835.218 507.27 807.224 499.287 782.49 483.323 C 757.756 467.358 738.419 445.435 724.478 417.553 C 710.537 389.446 703.567 358.192 703.567 323.789 C 703.567 289.162 710.537 257.907 724.478 230.025 C 738.419 202.143 757.756 180.22 782.49 164.255 C 807.224 148.291 835.218 140.309 866.473 140.309 C 894.13 140.309 917.515 147.054 936.627 160.545 C 955.965 173.812 970.693 194.161 980.811 221.593 C 990.929 248.8 995.989 282.866 995.989 323.789 L 961.586 197.309 L 1004.083 197.309 L 1004.083 450.269 L 961.586 450.269 L 995.989 323.789 Z M 887.384 420.251 C 904.248 420.251 919.314 416.204 932.58 408.109 C 946.071 399.79 956.527 388.322 963.947 373.707 C 971.367 359.091 975.077 342.452 975.077 323.789 C 975.077 304.901 971.367 288.15 963.947 273.534 C 956.527 258.919 946.071 247.564 932.58 239.469 C 919.314 231.374 904.248 227.327 887.384 227.327 C 870.296 227.327 855.118 231.374 841.852 239.469 C 828.585 247.564 818.13 258.919 810.484 273.534 C 803.064 288.15 799.354 304.901 799.354 323.789 C 799.354 342.227 803.064 358.866 810.484 373.707 C 818.13 388.322 828.585 399.79 841.852 408.109 C 855.118 416.204 870.296 420.251 887.384 420.251 Z M 972.379 497.826 L 972.379 427.671 L 987.557 323.789 L 972.379 231.374 L 972.379 149.752 L 1067.492 149.752 L 1067.492 497.826 L 972.379 497.826 Z" fill="currentColor" fill-rule="nonzero"/>
  <path d="M 1148.777 149.752 L 1243.89 149.752 L 1243.89 497.826 L 1148.777 497.826 L 1148.777 149.752 Z M 1383.524 307.262 C 1383.524 281.854 1377.79 262.179 1366.322 248.238 C 1354.855 234.297 1338.89 227.327 1318.429 227.327 C 1304.488 227.327 1291.783 230.812 1280.316 237.783 C 1269.073 244.528 1260.192 255.096 1253.671 269.487 C 1247.15 283.878 1243.89 301.866 1243.89 323.452 L 1233.097 258.694 L 1233.097 201.356 L 1254.683 201.356 L 1233.097 258.694 C 1233.097 235.534 1238.156 215.072 1248.274 197.309 C 1258.618 179.321 1272.896 165.38 1291.109 155.486 C 1309.322 145.368 1330.121 140.309 1353.506 140.309 C 1379.589 140.309 1401.962 146.38 1420.625 158.522 C 1439.512 170.664 1453.79 188.09 1463.459 210.8 C 1473.353 233.286 1478.299 260.156 1478.299 291.41 L 1478.299 497.826 L 1383.524 497.826 L 1383.524 307.262 Z" fill="currentColor" fill-rule="nonzero"/>
  <path d="M 1523.832 149.752 L 1757.905 149.752 L 1757.905 223.954 L 1523.832 223.954 L 1523.832 149.752 Z M 1702.928 507.27 C 1677.07 507.27 1655.147 502.098 1637.158 491.755 C 1619.17 481.411 1605.454 466.346 1596.01 446.559 C 1586.566 426.772 1581.844 402.713 1581.844 374.381 L 1581.844 68.805 L 1676.958 68.805 L 1676.958 369.322 C 1676.958 385.961 1680.555 398.103 1687.75 405.748 C 1694.946 413.168 1706.526 416.878 1722.49 416.878 C 1733.283 416.878 1745.088 415.192 1757.905 411.819 L 1757.905 497.826 C 1741.266 504.122 1722.94 507.27 1702.928 507.27 Z" fill="currentColor" fill-rule="nonzero"/>
  <path d="M 1993.664 507.27 C 1956.788 507.27 1923.959 499.512 1895.178 483.997 C 1866.397 468.257 1844.024 446.447 1828.059 418.565 C 1812.319 390.683 1804.449 359.091 1804.449 323.789 C 1804.449 288.487 1812.319 256.895 1828.059 229.013 C 1844.024 201.131 1865.834 179.433 1893.491 163.918 C 1921.373 148.178 1952.628 140.309 1987.255 140.309 C 2021.883 140.309 2052.575 148.178 2079.333 163.918 C 2106.091 179.433 2126.889 201.131 2141.73 229.013 C 2156.795 256.895 2164.328 288.487 2164.328 323.789 C 2164.328 333.683 2163.765 344.026 2162.641 354.819 L 1860.775 354.819 L 1860.775 281.966 L 2072.925 281.966 L 2068.203 291.747 C 2068.203 277.807 2064.718 265.327 2057.747 254.309 C 2051.001 243.292 2041.557 234.522 2029.415 228.001 C 2017.273 221.256 2003.22 217.883 1987.255 217.883 C 1970.391 217.883 1955.214 221.818 1941.723 229.688 C 1928.456 237.333 1917.888 248.126 1910.018 262.067 C 1902.373 275.783 1898.551 291.635 1898.551 309.623 L 1898.551 335.931 C 1898.551 354.144 1902.71 370.446 1911.03 384.837 C 1919.35 399.003 1930.705 410.02 1945.095 417.89 C 1959.486 425.76 1975.675 429.695 1993.664 429.695 C 2011.652 429.695 2027.054 425.76 2039.871 417.89 C 2052.688 410.02 2062.469 399.227 2069.214 385.511 L 2151.848 416.541 C 2137.458 444.873 2116.771 467.133 2089.789 483.323 C 2062.806 499.287 2030.765 507.27 1993.664 507.27 Z" fill="currentColor" fill-rule="nonzero"/>
  <path d="M 2573.786 9.444 L 2573.786 497.826 L 2478.673 497.826 L 2478.673 427.671 L 2493.85 323.789 L 2478.673 231.374 L 2478.673 9.444 L 2573.786 9.444 Z M 2467.88 450.269 L 2502.282 323.789 C 2502.282 364.712 2497.223 398.778 2487.105 425.985 C 2476.986 453.192 2462.258 473.542 2442.921 487.033 C 2423.583 500.524 2400.199 507.27 2372.767 507.27 C 2341.062 507.27 2312.843 499.287 2288.109 483.323 C 2263.6 467.358 2244.375 445.435 2230.435 417.553 C 2216.719 389.446 2209.86 358.192 2209.86 323.789 C 2209.86 289.162 2216.719 257.907 2230.435 230.025 C 2244.375 202.143 2263.6 180.22 2288.109 164.255 C 2312.843 148.291 2341.062 140.309 2372.767 140.309 C 2400.199 140.309 2423.583 147.054 2442.921 160.545 C 2462.258 173.812 2476.986 194.161 2487.105 221.593 C 2497.223 248.8 2502.282 282.866 2502.282 323.789 L 2467.88 197.309 L 2510.377 197.309 L 2510.377 450.269 L 2467.88 450.269 Z M 2347.808 408.109 C 2361.299 416.204 2376.589 420.251 2393.678 420.251 C 2410.317 420.251 2425.27 416.204 2438.536 408.109 C 2452.028 399.79 2462.483 388.322 2469.903 373.707 C 2477.548 359.091 2481.371 342.452 2481.371 323.789 C 2481.371 304.901 2477.548 288.15 2469.903 273.534 C 2462.483 258.919 2452.028 247.564 2438.536 239.469 C 2425.27 231.374 2410.317 227.327 2393.678 227.327 C 2376.589 227.327 2361.299 231.374 2347.808 239.469 C 2334.317 247.564 2323.861 258.919 2316.441 273.534 C 2309.246 288.15 2305.648 304.901 2305.648 323.789 C 2305.648 342.227 2309.246 358.866 2316.441 373.707 C 2323.861 388.322 2334.317 399.79 2347.808 408.109 Z" fill="currentColor" fill-rule="nonzero"/>
  <path d="M 3063.179 507.27 C 3015.51 507.27 2972.114 496.252 2932.989 474.216 C 2894.09 451.956 2863.397 421.488 2840.912 382.813 C 2818.651 344.138 2807.521 301.079 2807.521 253.635 C 2807.521 205.966 2818.651 162.794 2840.912 124.119 C 2863.397 85.444 2894.09 55.089 2932.989 33.053 C 2972.114 11.018 3015.51 0 3063.179 0 C 3111.298 0 3154.807 11.018 3193.707 33.053 C 3232.607 55.089 3263.187 85.444 3285.447 124.119 C 3307.708 162.794 3318.838 205.966 3318.838 253.635 C 3318.838 301.079 3307.708 344.138 3285.447 382.813 C 3263.187 421.488 3232.607 451.956 3193.707 474.216 C 3154.807 496.252 3111.298 507.27 3063.179 507.27 Z M 3063.179 413.506 C 3093.31 413.506 3120.18 406.76 3143.79 393.269 C 3167.399 379.553 3185.837 360.553 3199.104 336.268 C 3212.37 311.984 3219.003 284.44 3219.003 253.635 C 3219.003 222.605 3212.37 194.948 3199.104 170.664 C 3185.837 146.38 3167.399 127.492 3143.79 114.001 C 3120.18 100.51 3093.31 93.764 3063.179 93.764 C 3033.274 93.764 3006.404 100.51 2982.569 114.001 C 2958.96 127.492 2940.522 146.38 2927.255 170.664 C 2913.989 194.948 2907.356 222.605 2907.356 253.635 C 2907.356 284.44 2913.989 311.984 2927.255 336.268 C 2940.522 360.553 2958.96 379.553 2982.569 393.269 C 3006.404 406.76 3033.274 413.506 3063.179 413.506 Z" fill="currentColor" fill-rule="nonzero"/>
  <path d="M 3384.945 149.752 L 3480.058 149.752 L 3480.058 497.826 L 3384.945 497.826 L 3384.945 149.752 Z M 3619.692 307.262 C 3619.692 281.854 3613.958 262.179 3602.491 248.238 C 3591.023 234.297 3575.058 227.327 3554.597 227.327 C 3540.656 227.327 3527.952 230.812 3516.484 237.783 C 3505.241 244.528 3496.36 255.096 3489.839 269.487 C 3483.318 283.878 3480.058 301.866 3480.058 323.452 L 3469.265 258.694 L 3469.265 201.356 L 3490.851 201.356 L 3469.265 258.694 C 3469.265 235.534 3474.324 215.072 3484.442 197.309 C 3494.786 179.321 3509.064 165.38 3527.277 155.486 C 3545.49 145.368 3566.289 140.309 3589.674 140.309 C 3615.757 140.309 3638.13 146.38 3656.793 158.522 C 3675.68 170.664 3689.959 188.09 3699.627 210.8 C 3709.521 233.286 3714.468 260.156 3714.468 291.41 L 3714.468 497.826 L 3619.692 497.826 L 3619.692 307.262 Z" fill="currentColor" fill-rule="nonzero"/>
  <path d="M 3967.428 507.27 C 3930.552 507.27 3897.723 499.512 3868.942 483.997 C 3840.161 468.257 3817.788 446.447 3801.823 418.565 C 3786.083 390.683 3778.214 359.091 3778.214 323.789 C 3778.214 288.487 3786.083 256.895 3801.823 229.013 C 3817.788 201.131 3839.599 179.433 3867.256 163.918 C 3895.137 148.178 3926.392 140.309 3961.02 140.309 C 3995.647 140.309 4026.34 148.178 4053.097 163.918 C 4079.855 179.433 4100.654 201.131 4115.494 229.013 C 4130.56 256.895 4138.092 288.487 4138.092 323.789 C 4138.092 333.683 4137.529 344.026 4136.405 354.819 L 3834.54 354.819 L 3834.54 281.966 L 4046.689 281.966 L 4041.967 291.747 C 4041.967 277.807 4038.482 265.327 4031.511 254.309 C 4024.766 243.292 4015.322 234.522 4003.18 228.001 C 3991.038 221.256 3976.984 217.883 3961.02 217.883 C 3944.156 217.883 3928.978 221.818 3915.487 229.688 C 3902.22 237.333 3891.652 248.126 3883.782 262.067 C 3876.137 275.783 3872.315 291.635 3872.315 309.623 L 3872.315 335.931 C 3872.315 354.144 3876.475 370.446 3884.794 384.837 C 3893.114 399.003 3904.469 410.02 3918.859 417.89 C 3933.25 425.76 3949.439 429.695 3967.428 429.695 C 3985.416 429.695 4000.819 425.76 4013.635 417.89 C 4026.452 410.02 4036.233 399.227 4042.979 385.511 L 4125.612 416.541 C 4111.222 444.873 4090.535 467.133 4063.553 483.323 C 4036.57 499.287 4004.529 507.27 3967.428 507.27 Z" fill="currentColor" fill-rule="nonzero"/>
  <path d="M 4203.861 9.444 L 4303.021 9.444 L 4303.021 497.826 L 4203.861 497.826 L 4203.861 9.444 Z" fill="currentColor" fill-rule="nonzero"/>
  <path d="M 4389.366 9.444 L 4488.526 9.444 L 4488.526 497.826 L 4389.366 497.826 L 4389.366 9.444 Z M 4487.177 404.736 L 4537.769 404.736 C 4573.071 404.736 4603.427 398.778 4628.835 386.86 C 4654.243 374.943 4673.468 357.63 4686.51 334.919 C 4699.776 312.209 4706.409 285.114 4706.409 253.635 C 4706.409 221.93 4699.776 194.723 4686.51 172.013 C 4673.468 149.303 4654.243 132.101 4628.835 120.409 C 4603.427 108.492 4573.071 102.533 4537.769 102.533 L 4487.177 102.533 L 4487.177 9.444 L 4537.769 9.444 C 4591.509 9.444 4638.616 19.562 4679.089 39.799 C 4719.563 59.811 4750.818 88.255 4772.854 125.131 C 4795.114 162.007 4806.244 204.842 4806.244 253.635 C 4806.244 302.203 4795.114 344.925 4772.854 381.801 C 4750.818 418.677 4719.563 447.234 4679.089 467.47 C 4638.616 487.707 4591.509 497.826 4537.769 497.826 L 4487.177 497.826 L 4487.177 404.736 Z" fill="currentColor" fill-rule="nonzero"/>
</svg>
